<svg width="50" height="50" viewBox="0 0 50 50" fill="none" xmlns="http://www.w3.org/2000/svg">
<path d="M25 25C30.9647 25 35.8 20.1647 35.8 14.2C35.8 8.23532 30.9647 3.39999 25 3.39999C19.0353 3.39999 14.2 8.23532 14.2 14.2C14.2 20.1647 19.0353 25 25 25Z" stroke="#1C1C24" stroke-width="2" stroke-linecap="round" stroke-linejoin="round"/>
<path d="M29.2 10L25 14.2M13 4.6L16.6 1M33.4 1L37 4.6" stroke="#1C1C24" stroke-width="2" stroke-linecap="round" stroke-linejoin="round"/>
<path d="M13.196 44.9H8.73198L7.80798 47H6.57198L10.376 38.6H11.564L15.38 47H14.12L13.196 44.9ZM12.776 43.94L10.964 39.824L9.15198 43.94H12.776ZM16.465 38.096H17.617V47H16.465V38.096ZM22.1326 40.58C23.0126 40.58 23.6846 40.796 24.1486 41.228C24.6206 41.66 24.8566 42.304 24.8566 43.16V47H23.7646V46.16C23.5726 46.456 23.2966 46.684 22.9366 46.844C22.5846 46.996 22.1646 47.072 21.6766 47.072C20.9646 47.072 20.3926 46.9 19.9606 46.556C19.5366 46.212 19.3246 45.76 19.3246 45.2C19.3246 44.64 19.5286 44.192 19.9366 43.856C20.3446 43.512 20.9926 43.34 21.8806 43.34H23.7046V43.112C23.7046 42.616 23.5606 42.236 23.2726 41.972C22.9846 41.708 22.5606 41.576 22.0006 41.576C21.6246 41.576 21.2566 41.64 20.8966 41.768C20.5366 41.888 20.2326 42.052 19.9846 42.26L19.5046 41.396C19.8326 41.132 20.2246 40.932 20.6806 40.796C21.1366 40.652 21.6206 40.58 22.1326 40.58ZM21.8686 46.184C22.3086 46.184 22.6886 46.088 23.0086 45.896C23.3286 45.696 23.5606 45.416 23.7046 45.056V44.168H21.9286C20.9526 44.168 20.4646 44.496 20.4646 45.152C20.4646 45.472 20.5886 45.724 20.8366 45.908C21.0846 46.092 21.4286 46.184 21.8686 46.184ZM28.0925 41.708C28.2925 41.34 28.5885 41.06 28.9805 40.868C29.3725 40.676 29.8485 40.58 30.4085 40.58V41.696C30.3445 41.688 30.2565 41.684 30.1445 41.684C29.5205 41.684 29.0285 41.872 28.6685 42.248C28.3165 42.616 28.1405 43.144 28.1405 43.832V47H26.9885V40.64H28.0925V41.708ZM39.7843 40.58C40.5843 40.58 41.2163 40.812 41.6803 41.276C42.1523 41.74 42.3883 42.428 42.3883 43.34V47H41.2363V43.472C41.2363 42.856 41.0923 42.392 40.8043 42.08C40.5243 41.768 40.1203 41.612 39.5923 41.612C39.0083 41.612 38.5443 41.796 38.2003 42.164C37.8563 42.524 37.6843 43.044 37.6843 43.724V47H36.5323V43.472C36.5323 42.856 36.3883 42.392 36.1003 42.08C35.8203 41.768 35.4163 41.612 34.8883 41.612C34.3043 41.612 33.8403 41.796 33.4963 42.164C33.1523 42.524 32.9803 43.044 32.9803 43.724V47H31.8283V40.64H32.9323V41.588C33.1643 41.26 33.4683 41.012 33.8443 40.844C34.2203 40.668 34.6483 40.58 35.1283 40.58C35.6243 40.58 36.0643 40.68 36.4483 40.88C36.8323 41.08 37.1283 41.372 37.3363 41.756C37.5763 41.388 37.9083 41.1 38.3323 40.892C38.7643 40.684 39.2483 40.58 39.7843 40.58Z" fill="black"/>
</svg>
