<svg width="50" height="50" viewBox="0 0 50 50" fill="none" xmlns="http://www.w3.org/2000/svg">
<path d="M32.2 20.2V24.04M35.08 25H17.8C16.36 25 14.92 24.04 14.92 22.12M14.92 22.12C14.92 20.2 16.36 19.24 17.8 19.24H35.08V1H17.8C16.36 1 14.92 2.44 14.92 3.88V22.12Z" stroke="#1C1C24" stroke-width="2" stroke-linecap="round" stroke-linejoin="round"/>
<path d="M13.1503 42.644C13.6383 42.78 14.0223 43.028 14.3023 43.388C14.5823 43.74 14.7223 44.188 14.7223 44.732C14.7223 45.46 14.4463 46.02 13.8943 46.412C13.3503 46.804 12.5543 47 11.5063 47H7.49828V38.6H11.2663C12.2263 38.6 12.9663 38.792 13.4863 39.176C14.0143 39.56 14.2783 40.092 14.2783 40.772C14.2783 41.212 14.1743 41.592 13.9663 41.912C13.7663 42.232 13.4943 42.476 13.1503 42.644ZM8.69828 39.572V42.26H11.1583C11.7743 42.26 12.2463 42.148 12.5743 41.924C12.9103 41.692 13.0783 41.356 13.0783 40.916C13.0783 40.476 12.9103 40.144 12.5743 39.92C12.2463 39.688 11.7743 39.572 11.1583 39.572H8.69828ZM11.4583 46.028C12.1383 46.028 12.6503 45.916 12.9943 45.692C13.3383 45.468 13.5103 45.116 13.5103 44.636C13.5103 43.7 12.8263 43.232 11.4583 43.232H8.69828V46.028H11.4583ZM19.1363 47.072C18.5043 47.072 17.9363 46.932 17.4323 46.652C16.9283 46.372 16.5323 45.988 16.2443 45.5C15.9643 45.004 15.8243 44.444 15.8243 43.82C15.8243 43.196 15.9643 42.64 16.2443 42.152C16.5323 41.656 16.9283 41.272 17.4323 41C17.9363 40.72 18.5043 40.58 19.1363 40.58C19.7683 40.58 20.3323 40.72 20.8283 41C21.3323 41.272 21.7243 41.656 22.0043 42.152C22.2923 42.64 22.4363 43.196 22.4363 43.82C22.4363 44.444 22.2923 45.004 22.0043 45.5C21.7243 45.988 21.3323 46.372 20.8283 46.652C20.3323 46.932 19.7683 47.072 19.1363 47.072ZM19.1363 46.064C19.5443 46.064 19.9083 45.972 20.2283 45.788C20.5563 45.596 20.8123 45.332 20.9963 44.996C21.1803 44.652 21.2723 44.26 21.2723 43.82C21.2723 43.38 21.1803 42.992 20.9963 42.656C20.8123 42.312 20.5563 42.048 20.2283 41.864C19.9083 41.68 19.5443 41.588 19.1363 41.588C18.7283 41.588 18.3603 41.68 18.0323 41.864C17.7123 42.048 17.4563 42.312 17.2643 42.656C17.0803 42.992 16.9883 43.38 16.9883 43.82C16.9883 44.26 17.0803 44.652 17.2643 44.996C17.4563 45.332 17.7123 45.596 18.0323 45.788C18.3603 45.972 18.7283 46.064 19.1363 46.064ZM26.7535 47.072C26.1215 47.072 25.5535 46.932 25.0495 46.652C24.5455 46.372 24.1495 45.988 23.8615 45.5C23.5815 45.004 23.4415 44.444 23.4415 43.82C23.4415 43.196 23.5815 42.64 23.8615 42.152C24.1495 41.656 24.5455 41.272 25.0495 41C25.5535 40.72 26.1215 40.58 26.7535 40.58C27.3855 40.58 27.9495 40.72 28.4455 41C28.9495 41.272 29.3415 41.656 29.6215 42.152C29.9095 42.64 30.0535 43.196 30.0535 43.82C30.0535 44.444 29.9095 45.004 29.6215 45.5C29.3415 45.988 28.9495 46.372 28.4455 46.652C27.9495 46.932 27.3855 47.072 26.7535 47.072ZM26.7535 46.064C27.1615 46.064 27.5255 45.972 27.8455 45.788C28.1735 45.596 28.4295 45.332 28.6135 44.996C28.7975 44.652 28.8895 44.26 28.8895 43.82C28.8895 43.38 28.7975 42.992 28.6135 42.656C28.4295 42.312 28.1735 42.048 27.8455 41.864C27.5255 41.68 27.1615 41.588 26.7535 41.588C26.3455 41.588 25.9775 41.68 25.6495 41.864C25.3295 42.048 25.0735 42.312 24.8815 42.656C24.6975 42.992 24.6055 43.38 24.6055 43.82C24.6055 44.26 24.6975 44.652 24.8815 44.996C25.0735 45.332 25.3295 45.596 25.6495 45.788C25.9775 45.972 26.3455 46.064 26.7535 46.064ZM34.1187 44.036L32.7987 45.26V47H31.6467V38.096H32.7987V43.808L36.2667 40.64H37.6587L34.9827 43.268L37.9227 47H36.5067L34.1187 44.036ZM40.666 47.072C40.146 47.072 39.646 47.004 39.166 46.868C38.686 46.724 38.31 46.544 38.038 46.328L38.518 45.416C38.798 45.616 39.138 45.776 39.538 45.896C39.938 46.016 40.342 46.076 40.75 46.076C41.758 46.076 42.262 45.788 42.262 45.212C42.262 45.02 42.194 44.868 42.058 44.756C41.922 44.644 41.75 44.564 41.542 44.516C41.342 44.46 41.054 44.4 40.678 44.336C40.166 44.256 39.746 44.164 39.418 44.06C39.098 43.956 38.822 43.78 38.59 43.532C38.358 43.284 38.242 42.936 38.242 42.488C38.242 41.912 38.482 41.452 38.962 41.108C39.442 40.756 40.086 40.58 40.894 40.58C41.318 40.58 41.742 40.632 42.166 40.736C42.59 40.84 42.938 40.98 43.21 41.156L42.718 42.068C42.198 41.732 41.586 41.564 40.882 41.564C40.394 41.564 40.022 41.644 39.766 41.804C39.51 41.964 39.382 42.176 39.382 42.44C39.382 42.648 39.454 42.812 39.598 42.932C39.742 43.052 39.918 43.14 40.126 43.196C40.342 43.252 40.642 43.316 41.026 43.388C41.538 43.476 41.95 43.572 42.262 43.676C42.582 43.772 42.854 43.94 43.078 44.18C43.302 44.42 43.414 44.756 43.414 45.188C43.414 45.764 43.166 46.224 42.67 46.568C42.182 46.904 41.514 47.072 40.666 47.072Z" fill="black"/>
</svg>
