<svg width="25" height="26" viewBox="0 0 25 26" fill="none" xmlns="http://www.w3.org/2000/svg">
<path d="M11.6393 13C14.953 13 17.6393 10.3137 17.6393 7C17.6393 3.68629 14.953 1 11.6393 1C8.32557 1 5.63928 3.68629 5.63928 7C5.63928 10.3137 8.32557 13 11.6393 13Z" stroke="#8986E1" stroke-width="2"/>
<path d="M17.6393 25H3.55848C3.21814 25.0001 2.88168 24.9278 2.57142 24.7879C2.26116 24.648 1.9842 24.4437 1.75893 24.1886C1.53366 23.9334 1.36523 23.6333 1.26481 23.3081C1.16439 22.983 1.13428 22.6401 1.17648 22.3024L1.64448 18.5536C1.75332 17.6827 2.17658 16.8815 2.83468 16.3008C3.49278 15.72 4.34038 15.3997 5.21808 15.4H5.63928M20.0393 14.2V21.4M16.4393 17.8H23.6393" stroke="#8986E1" stroke-width="2" stroke-linecap="round" stroke-linejoin="round"/>
</svg>
