<svg width="26" height="25" viewBox="0 0 26 25" fill="none" xmlns="http://www.w3.org/2000/svg">
<path d="M4.33594 2.5C3.7392 2.5 3.1669 2.73705 2.74495 3.15901C2.32299 3.58097 2.08594 4.15326 2.08594 4.75V15.25C2.08594 15.8467 2.32299 16.419 2.74495 16.841C3.1669 17.2629 3.7392 17.5 4.33594 17.5H7.08594V22.296C7.08594 22.499 7.31594 22.618 7.48194 22.498L14.4099 17.5H20.8359C21.4327 17.5 22.005 17.2629 22.4269 16.841C22.8489 16.419 23.0859 15.8467 23.0859 15.25V4.75C23.0859 4.15326 22.8489 3.58097 22.4269 3.15901C22.005 2.73705 21.4327 2.5 20.8359 2.5H4.33594ZM0.585938 4.75C0.585938 3.75544 0.981026 2.80161 1.68429 2.09835C2.38755 1.39509 3.34138 1 4.33594 1H20.8359C21.8305 1 22.7843 1.39509 23.4876 2.09835C24.1909 2.80161 24.5859 3.75544 24.5859 4.75V15.25C24.5859 16.2446 24.1909 17.1984 23.4876 17.9017C22.7843 18.6049 21.8305 19 20.8359 19H14.8949L8.35994 23.715C7.20194 24.55 5.58594 23.723 5.58594 22.295V19H4.33594C3.34138 19 2.38755 18.6049 1.68429 17.9017C0.981026 17.1984 0.585938 16.2446 0.585938 15.25V4.75Z" fill="#8986E1" stroke="#8986E1"/>
</svg>
