<svg width="25" height="25" viewBox="0 0 25 25" fill="none" xmlns="http://www.w3.org/2000/svg">
<path d="M18.4356 5.3V5.45H18.5856H23.3856C23.6641 5.45 23.9311 5.56063 24.128 5.75754C24.3249 5.95445 24.4356 6.22152 24.4356 6.5C24.4356 6.77848 24.3249 7.04555 24.128 7.24246C23.9311 7.43937 23.6641 7.55 23.3856 7.55H22.1028H21.9631L21.9532 7.68932L20.9128 22.2597L20.9127 22.2598C20.8723 22.8274 20.6183 23.3587 20.2019 23.7465C19.7854 24.1344 19.2375 24.35 18.6684 24.35H6.50157C5.93247 24.35 5.38452 24.1344 4.96806 23.7465C4.55161 23.3587 4.2976 22.8274 4.25719 22.2598L4.10757 22.2704L4.25719 22.2597L3.21919 7.68934L3.20927 7.55H3.06957H1.78557C1.50709 7.55 1.24002 7.43938 1.04311 7.24246C0.846196 7.04555 0.735571 6.77848 0.735571 6.5C0.735571 6.22152 0.846196 5.95445 1.04311 5.75754C1.24002 5.56063 1.50709 5.45 1.78557 5.45H6.58557H6.73557V5.3V2.9C6.73557 2.30326 6.97262 1.73097 7.39458 1.30901C7.81654 0.887053 8.38883 0.65 8.98557 0.65H16.1856C16.7823 0.65 17.3546 0.887053 17.7766 1.30901C18.1985 1.73097 18.4356 2.30326 18.4356 2.9V5.3ZM8.83557 5.3V5.45H8.98557H16.1856H16.3356V5.3V2.9V2.75H16.1856H8.98557H8.83557V2.9V5.3ZM5.47437 7.55H5.31328L5.32475 7.71069L6.35315 22.1107L6.3631 22.25H6.50277H18.6696H18.8092L18.8192 22.1107L19.8476 7.71069L19.8591 7.55H19.698H5.47437Z" fill="#1C1C24" stroke="white" stroke-width="0.3"/>
</svg>
