<svg width="171" height="150" viewBox="0 0 171 150" fill="none" xmlns="http://www.w3.org/2000/svg">
<path d="M87.0714 61.9745L87.5381 61.9345C87.7071 61.9158 87.8687 61.855 88.0081 61.7578L88.0048 61.7611C88.4515 63.3012 88.9982 64.9212 89.6815 66.618C90.5582 68.8381 91.4216 70.6615 92.3883 72.4216L92.255 72.1549C92.175 73.3683 92.0783 74.615 91.9516 75.8217C91.8961 76.5336 91.7517 77.2358 91.5216 77.9118L91.5383 77.8518C91.4983 77.8685 91.4416 84.7854 91.4416 84.7854C91.4428 86.9316 92.1662 89.015 93.4952 90.7002C94.8243 92.3854 96.6817 93.5744 98.7686 94.0758L98.8352 94.0891C98.9279 93.8485 99.0911 93.6414 99.3035 93.4951C99.5158 93.3488 99.7674 93.27 100.025 93.2691H101.939C102.194 93.2725 102.443 93.3512 102.654 93.4953C102.865 93.6393 103.029 93.8424 103.125 94.0791L103.129 94.0891C105.233 93.6026 107.112 92.4199 108.461 90.7326C109.809 89.0453 110.548 86.9521 110.559 84.7921V84.7887C110.559 84.7887 110.442 77.9018 110.382 77.8551C110.184 77.2108 110.048 76.5488 109.976 75.8784L109.972 75.8284C109.856 74.615 109.779 73.3983 109.669 72.1615C110.492 70.6748 111.356 68.8547 112.116 66.978L112.242 66.6247C112.926 64.9279 113.456 63.3112 113.919 61.7678C114.056 61.865 114.216 61.9258 114.383 61.9445H114.386L114.856 61.9845C115.423 62.0445 115.923 61.5778 115.969 60.8544L116.476 54.4175V54.4108C116.476 54.1518 116.381 53.9017 116.21 53.7073C116.039 53.5128 115.803 53.3873 115.546 53.3541H115.483C115.927 50.0023 115.652 46.5943 114.676 43.357L114.719 43.527C113.779 41.4393 112.349 39.6093 110.551 38.1921C108.752 36.775 106.638 35.8126 104.389 35.3867L104.302 35.3733C103.211 35.1547 102.104 35.0298 100.992 35H100.922C99.7587 35.0208 98.6001 35.1525 97.4619 35.3933L97.5819 35.3733C95.3334 35.7907 93.2176 36.7406 91.4116 38.1435C89.6056 39.5465 88.1619 41.3616 87.2014 43.437L87.1648 43.527C86.205 46.7518 85.9493 50.1452 86.4147 53.4774L86.4014 53.3541C86.1438 53.382 85.9056 53.5038 85.7321 53.6963C85.5587 53.8888 85.4623 54.1384 85.4614 54.3975V54.4208L85.968 60.8577C86.0147 61.5978 86.5214 62.0445 87.0681 61.9845L87.0714 61.9745Z" fill="#F6B8BF"/>
<path d="M136.693 104.576C136.46 94.4425 135.447 92.1491 134.9 90.5957C134.683 89.9723 134.507 85.7588 127.546 83.0253C123.28 81.3453 117.773 81.3119 113.113 79.3419V84.8221C113.108 87.6316 112.126 90.3519 110.335 92.517C108.545 94.682 106.057 96.1571 103.299 96.6892L103.222 96.7026C103.172 96.9982 103.02 97.267 102.792 97.462C102.564 97.6569 102.275 97.7657 101.975 97.7693H101.915V101.903C101.915 103.842 102.686 105.703 104.057 107.074C105.429 108.446 107.289 109.216 109.229 109.216C111.169 109.216 113.029 108.446 114.401 107.074C115.772 105.703 116.543 103.842 116.543 101.903V99.016C115.536 98.8684 114.618 98.3569 113.963 97.5784C113.308 96.7998 112.961 95.8082 112.988 94.791C113.014 93.7738 113.413 92.8017 114.108 92.0585C114.803 91.3153 115.746 90.8525 116.759 90.7578C117.772 90.663 118.785 90.9428 119.605 91.5442C120.426 92.1457 120.998 93.0271 121.213 94.0216C121.427 95.0162 121.27 96.055 120.771 96.9416C120.272 97.8281 119.465 98.5009 118.503 98.8327L118.473 98.8427V102.059C118.473 104.512 117.498 106.864 115.764 108.598C114.03 110.332 111.678 111.307 109.226 111.307C106.773 111.307 104.421 110.332 102.687 108.598C100.953 106.864 99.9786 104.512 99.9786 102.059V101.893V101.899V97.7293C99.6932 97.7098 99.4227 97.5946 99.2109 97.4022C98.9992 97.2098 98.8586 96.9515 98.8119 96.6692V96.6626C96.0503 96.1359 93.5577 94.6653 91.7612 92.5027C89.9647 90.3401 88.9762 87.6202 88.9648 84.8088V79.2852C84.2846 81.2953 78.7444 81.3353 74.4542 83.0187C67.4739 85.7488 67.3139 89.9523 67.1006 90.5857C66.5672 92.1457 65.5405 94.4291 65.3072 104.57C65.2672 105.903 65.3072 107.946 69.3274 109.733C78.0811 113.167 89.3582 114.233 100.475 115H101.542C112.682 114.24 123.943 113.177 132.69 109.733C136.693 107.956 136.73 105.926 136.693 104.58V104.576ZM87.7548 100.443H83.6013V104.613H80.6345V100.456H76.481V97.4893H80.6345V93.3358H83.6013V97.4893H87.7548V100.443Z" fill="#F6B8BF"/>
<path d="M119.389 94.8658V94.8625C119.389 94.2677 119.152 93.6973 118.731 93.277C118.311 92.8566 117.74 92.6205 117.145 92.6208C116.55 92.621 115.98 92.8574 115.559 93.2781C115.139 93.6988 114.903 94.2693 114.903 94.8642C114.903 95.459 115.139 96.0295 115.559 96.4502C115.98 96.8709 116.55 97.1074 117.145 97.1076C117.74 97.1078 118.311 96.8718 118.731 96.4514C119.152 96.031 119.389 95.4607 119.389 94.8658Z" fill="#F6B8BF"/>
<circle cx="101" cy="75" r="55" stroke="#F6B8BF" stroke-width="2"/>
<circle cx="101" cy="75" r="70" stroke="#F6B8BF" stroke-width="1.6"/>
<circle cx="101" cy="75" r="85" stroke="#F6B8BF" stroke-width="1.2"/>
<circle cx="101" cy="75" r="100" stroke="#F6B8BF" stroke-width="0.8"/>
</svg>
