<svg width="21" height="20" viewBox="0 0 21 20" fill="none" xmlns="http://www.w3.org/2000/svg">
<path d="M1.07279 0C0.864412 0 0.664572 0.0820961 0.517229 0.228228C0.369886 0.374361 0.287109 0.572559 0.287109 0.779221V6.75325C0.287109 9.93247 2.68604 12.5558 5.78685 12.9392V13.7662C5.78685 15.4195 6.44906 17.0051 7.6278 18.1742C8.80654 19.3432 10.4053 20 12.0723 20C13.7393 20 15.338 19.3432 16.5167 18.1742C17.6955 17.0051 18.3577 15.4195 18.3577 13.7662V12.8894C19.0979 12.6991 19.7427 12.2478 20.1716 11.6199C20.6005 10.9921 20.7839 10.2307 20.6876 9.47838C20.5913 8.72606 20.2218 8.03434 19.6483 7.53273C19.0748 7.03112 18.3366 6.754 17.572 6.75325C16.8062 6.752 16.0663 7.02813 15.4912 7.52976C14.9162 8.03139 14.5456 8.724 14.4492 9.47747C14.3527 10.2309 14.5369 10.9934 14.9673 11.6217C15.3976 12.2499 16.0445 12.7007 16.7863 12.8894V13.7662C16.7863 15.0062 16.2897 16.1954 15.4056 17.0722C14.5215 17.949 13.3225 18.4416 12.0723 18.4416C10.822 18.4416 9.62297 17.949 8.73892 17.0722C7.85486 16.1954 7.3582 15.0062 7.3582 13.7662V12.9392C8.87721 12.7492 10.2741 12.0159 11.2867 10.877C12.2993 9.73801 12.858 8.27172 12.8579 6.75325V0.779221C12.8579 0.572559 12.7752 0.374361 12.6278 0.228228C12.4805 0.0820961 12.2806 0 12.0723 0H9.45334C9.24496 0 9.04512 0.0820961 8.89778 0.228228C8.75044 0.374361 8.66766 0.572559 8.66766 0.779221C8.66766 0.985883 8.75044 1.18408 8.89778 1.33021C9.04512 1.47635 9.24496 1.55844 9.45334 1.55844H11.2866V6.75325C11.2866 7.99322 10.7899 9.18241 9.90587 10.0592C9.02181 10.936 7.82277 11.4286 6.57252 11.4286C5.32228 11.4286 4.12324 10.936 3.23918 10.0592C2.35512 9.18241 1.85846 7.99322 1.85846 6.75325V1.55844H3.69171C3.90008 1.55844 4.09992 1.47635 4.24727 1.33021C4.39461 1.18408 4.47738 0.985883 4.47738 0.779221C4.47738 0.572559 4.39461 0.374361 4.24727 0.228228C4.09992 0.0820961 3.90008 0 3.69171 0H1.07279ZM17.572 8.31169C17.9887 8.31169 18.3884 8.47588 18.6831 8.76815C18.9778 9.06041 19.1433 9.45681 19.1433 9.87013C19.1433 10.2835 18.9778 10.6799 18.6831 10.9721C18.3884 11.2644 17.9887 11.4286 17.572 11.4286C17.1552 11.4286 16.7556 11.2644 16.4609 10.9721C16.1662 10.6799 16.0006 10.2835 16.0006 9.87013C16.0006 9.45681 16.1662 9.06041 16.4609 8.76815C16.7556 8.47588 17.1552 8.31169 17.572 8.31169Z" fill="#1C1C24"/>
</svg>
