<svg width="26" height="26" viewBox="0 0 26 26" fill="none" xmlns="http://www.w3.org/2000/svg">
<path d="M24.5494 5.86274L20.1597 1.45062C19.8696 1.16202 19.4771 1 19.0679 1C18.6587 1 18.2661 1.16202 17.9761 1.45062L2.41399 16.9903L0.993137 23.1224C0.944122 23.3465 0.945803 23.5788 0.998055 23.8022C1.05031 24.0257 1.15181 24.2346 1.29515 24.4138C1.43849 24.5929 1.62005 24.7378 1.82656 24.8379C2.03307 24.9379 2.25932 24.9905 2.48877 24.9919C2.59569 25.0027 2.70342 25.0027 2.81033 24.9919L9.00973 23.571L24.5494 8.04637C24.838 7.7563 25 7.36375 25 6.95456C25 6.54536 24.838 6.15282 24.5494 5.86274ZM8.26192 22.225L2.45138 23.4439L3.77502 17.7456L15.4185 6.14691L19.9054 10.6338L8.26192 22.225ZM20.9075 9.54948L16.4206 5.06258L19.023 2.47513L23.4351 6.96204L20.9075 9.54948Z" fill="#1C1C24" stroke="#1C1C24" stroke-width="0.4"/>
</svg>
