<svg width="26" height="24" viewBox="0 0 26 24" fill="none" xmlns="http://www.w3.org/2000/svg">
<path fill-rule="evenodd" clip-rule="evenodd" d="M9.75905 5.84306C8.24243 6.10521 7.13751 7.39013 6.95659 8.91875L5.61536 20.3077H20.3846L19.0406 8.90306C18.8615 7.38183 17.7667 6.09967 16.2584 5.83567C13.9969 5.43967 12.112 5.43598 9.75905 5.84306ZM10.9046 9.8289C10.9288 9.58909 10.8583 9.34931 10.7081 9.16082C10.5578 8.97232 10.3399 8.85006 10.1007 8.82017C9.86151 8.79027 9.62013 8.85511 9.42813 9.00083C9.23614 9.14655 9.10875 9.36158 9.0732 9.59998L8.23782 16.2812C8.21967 16.4029 8.22604 16.527 8.25656 16.6463C8.28707 16.7655 8.34112 16.8774 8.41551 16.9754C8.48991 17.0734 8.58315 17.1556 8.68976 17.217C8.79638 17.2785 8.9142 17.318 9.03631 17.3333C9.15842 17.3486 9.28234 17.3393 9.4008 17.3059C9.51926 17.2726 9.62986 17.2159 9.7261 17.1392C9.82233 17.0625 9.90226 16.9674 9.96119 16.8593C10.0201 16.7513 10.0568 16.6326 10.0692 16.5101L10.9046 9.8289Z" fill="#1C1C24"/>
<path fill-rule="evenodd" clip-rule="evenodd" d="M11.5913 7.45567C11.9995 7.74546 12.3215 8.14046 12.523 8.59866C12.7246 9.05687 12.7982 9.56113 12.736 10.0578L11.9015 16.7391C11.8147 17.4314 11.4806 18.0314 10.9969 18.4615H18.3076L17.2073 9.11906C17.1132 8.31598 16.5575 7.76213 15.9409 7.65413C14.3984 7.38459 13.0701 7.31536 11.5913 7.45567ZM19.0406 8.90306C18.8615 7.38183 17.7667 6.09967 16.2584 5.83567C13.9969 5.43967 12.112 5.43598 9.75903 5.84306C8.24242 6.10521 7.13749 7.39013 6.95657 8.91875L5.61534 20.3077H20.3846L19.0406 8.90306ZM10.9046 9.8289L10.0692 16.5101C10.0568 16.6326 10.0201 16.7513 9.96117 16.8593C9.90224 16.9674 9.82231 17.0625 9.72608 17.1392C9.62984 17.2159 9.51924 17.2726 9.40078 17.3059C9.28233 17.3393 9.1584 17.3486 9.03629 17.3333C8.91418 17.318 8.79636 17.2785 8.68975 17.217C8.58314 17.1556 8.48989 17.0734 8.41549 16.9754C8.3411 16.8774 8.28705 16.7655 8.25654 16.6463C8.22602 16.527 8.21965 16.4029 8.2378 16.2812L9.07318 9.59998C9.08555 9.47754 9.12228 9.35882 9.1812 9.25078C9.24013 9.14275 9.32005 9.04758 9.41629 8.97089C9.51253 8.8942 9.62313 8.83752 9.74158 8.80419C9.86004 8.77086 9.98397 8.76155 10.1061 8.77682C10.2282 8.79208 10.346 8.83161 10.4526 8.89307C10.5592 8.95453 10.6525 9.03669 10.7269 9.13471C10.8013 9.23274 10.8553 9.34465 10.8858 9.46386C10.9163 9.58308 10.9227 9.70719 10.9046 9.8289ZM21.3076 24H4.69226V22.1538H21.3076V24Z" fill="#1C1C24"/>
<path d="M2.84614 12.9231C2.84614 13.2342 2.85998 13.5415 2.88767 13.8462H0.0769043V12H2.88767C2.85998 12.3046 2.84614 12.612 2.84614 12.9231ZM4.70337 7.06708C4.34736 7.57078 4.03808 8.10592 3.77937 8.66585L1.34706 7.26092L2.27014 5.66216L4.70337 7.06708ZM8.74183 3.70154C8.17968 3.96277 7.64521 4.27292 7.14491 4.62646L5.73906 2.19323L7.33783 1.27015L8.74183 3.70246V3.70154ZM13 2.76923C12.6889 2.76923 12.3815 2.78308 12.0769 2.81077V0H13.9231V2.81077C13.6161 2.78314 13.3081 2.76928 13 2.76923ZM18.856 4.62646C18.3523 4.27049 17.8171 3.96121 17.2572 3.70246L18.6621 1.27015L20.2609 2.19323L18.856 4.62646ZM22.2215 8.66492C21.9624 8.1056 21.6528 7.57107 21.2966 7.068L23.7298 5.66216L24.6529 7.26092L22.2206 8.66492H22.2215ZM23.1538 12.9231C23.1538 12.612 23.14 12.3046 23.1123 12H25.9231V13.8462H23.1123C23.14 13.5415 23.1538 13.2342 23.1538 12.9231Z" fill="#1C1C24"/>
</svg>
