<svg width="141" height="170" viewBox="0 0 141 170" fill="none" xmlns="http://www.w3.org/2000/svg">
<path fill-rule="evenodd" clip-rule="evenodd" d="M74.1558 52.35C72.7126 52.35 71.3285 52.9233 70.308 53.9438C69.2875 54.9643 68.7141 56.3484 68.7141 57.7916V112.208C68.7141 113.652 69.2875 115.036 70.308 116.056C71.3285 117.077 72.7126 117.65 74.1558 117.65H128.572C130.016 117.65 131.4 117.077 132.42 116.056C133.441 115.036 134.014 113.652 134.014 112.208V57.7916C134.014 56.3484 133.441 54.9643 132.42 53.9438C131.4 52.9233 130.016 52.35 128.572 52.35H74.1558ZM81.4114 65.0472C80.9303 65.0472 80.4689 65.2383 80.1287 65.5785C79.7886 65.9186 79.5975 66.38 79.5975 66.8611V95.8107C79.5975 96.2918 79.7886 96.7532 80.1287 97.0934C80.4689 97.4335 80.9303 97.6246 81.4114 97.6246H99.5502V101.51H91.3188V105.138H111.409V101.51H103.178V97.6228H121.317C121.798 97.6228 122.259 97.4317 122.6 97.0915C122.94 96.7514 123.131 96.29 123.131 95.8089V66.8611C123.131 66.38 122.94 65.9186 122.6 65.5785C122.259 65.2383 121.798 65.0472 121.317 65.0472H81.4114Z" fill="#F6B8BF"/>
<path d="M82.9459 80.7899H93.2089L99.3816 69.9338L103.24 83.2895L107.959 77.2855H117.959C118.44 77.2831 118.902 77.4716 119.244 77.8097C119.586 78.1478 119.779 78.6077 119.782 79.0885C119.779 79.569 119.585 80.0284 119.243 80.3661C118.902 80.7038 118.44 80.8921 117.959 80.8897H109.742L101.707 91.1073L98.2769 79.23L95.3384 84.3941H82.9459V80.7899Z" fill="#F6B8BF"/>
<circle cx="101.364" cy="85" r="55" stroke="#F6B8BF" stroke-width="2"/>
<circle cx="101.364" cy="85" r="70" stroke="#F6B8BF" stroke-width="1.6"/>
<circle cx="101.364" cy="85" r="85" stroke="#F6B8BF" stroke-width="1.2"/>
<circle cx="101.364" cy="85" r="100" stroke="#F6B8BF" stroke-width="0.8"/>
</svg>
