<svg width="32" height="19" viewBox="0 0 32 19" fill="none" xmlns="http://www.w3.org/2000/svg">
<path d="M10.9285 16.7603C10.9285 16.4193 11.064 16.0923 11.3051 15.8512C11.5462 15.61 11.8733 15.4746 12.2143 15.4746H19.9285C20.2695 15.4746 20.5966 15.61 20.8377 15.8512C21.0788 16.0923 21.2143 16.4193 21.2143 16.7603C21.2143 17.1013 21.0788 17.4283 20.8377 17.6694C20.5966 17.9106 20.2695 18.046 19.9285 18.046H12.2143C11.8733 18.046 11.5462 17.9106 11.3051 17.6694C11.064 17.4283 10.9285 17.1013 10.9285 16.7603ZM5.78568 9.04602C5.78568 8.70503 5.92114 8.378 6.16226 8.13688C6.40337 7.89577 6.7304 7.76031 7.07139 7.76031H25.0714C25.4124 7.76031 25.7394 7.89577 25.9805 8.13688C26.2216 8.378 26.3571 8.70503 26.3571 9.04602C26.3571 9.38701 26.2216 9.71404 25.9805 9.95516C25.7394 10.1963 25.4124 10.3317 25.0714 10.3317H7.07139C6.7304 10.3317 6.40337 10.1963 6.16226 9.95516C5.92114 9.71404 5.78568 9.38701 5.78568 9.04602ZM0.642822 1.33173C0.642822 0.990742 0.778281 0.663716 1.0194 0.422598C1.26052 0.18148 1.58754 0.0460205 1.92854 0.0460205H30.2143C30.5552 0.0460205 30.8823 0.18148 31.1234 0.422598C31.3645 0.663716 31.5 0.990742 31.5 1.33173C31.5 1.67273 31.3645 1.99975 31.1234 2.24087C30.8823 2.48199 30.5552 2.61745 30.2143 2.61745H1.92854C1.58754 2.61745 1.26052 2.48199 1.0194 2.24087C0.778281 1.99975 0.642822 1.67273 0.642822 1.33173Z" fill="black"/>
</svg>
