<svg width="50" height="50" viewBox="0 0 50 50" fill="none" xmlns="http://www.w3.org/2000/svg">
<path d="M36.8526 22.6295V13.3536C36.8527 12.7083 36.721 12.0697 36.4657 11.477C36.2103 10.8844 35.8366 10.3501 35.3675 9.90687L26.6286 1.64797C26.1884 1.23185 25.6057 1 25 1C24.3943 1 23.8116 1.23185 23.3715 1.64797L14.6325 9.90687C14.1634 10.3501 13.7898 10.8844 13.5344 11.477C13.279 12.0697 13.1473 12.7083 13.1474 13.3536V22.6295C13.1474 23.2582 13.3972 23.8611 13.8417 24.3057C14.2863 24.7502 14.8892 25 15.5179 25H34.4821C35.1108 25 35.7138 24.7502 36.1583 24.3057C36.6029 23.8611 36.8526 23.2582 36.8526 22.6295Z" stroke="#1C1C24" stroke-width="2" stroke-linecap="round" stroke-linejoin="round"/>
<path d="M14.775 38.6V47H13.575V43.256H8.75102V47H7.55102V38.6H8.75102V42.212H13.575V38.6H14.775ZM19.8453 47.072C19.2133 47.072 18.6453 46.932 18.1413 46.652C17.6373 46.372 17.2413 45.988 16.9533 45.5C16.6733 45.004 16.5333 44.444 16.5333 43.82C16.5333 43.196 16.6733 42.64 16.9533 42.152C17.2413 41.656 17.6373 41.272 18.1413 41C18.6453 40.72 19.2133 40.58 19.8453 40.58C20.4773 40.58 21.0413 40.72 21.5373 41C22.0413 41.272 22.4333 41.656 22.7133 42.152C23.0013 42.64 23.1453 43.196 23.1453 43.82C23.1453 44.444 23.0013 45.004 22.7133 45.5C22.4333 45.988 22.0413 46.372 21.5373 46.652C21.0413 46.932 20.4773 47.072 19.8453 47.072ZM19.8453 46.064C20.2533 46.064 20.6173 45.972 20.9373 45.788C21.2653 45.596 21.5213 45.332 21.7053 44.996C21.8893 44.652 21.9813 44.26 21.9813 43.82C21.9813 43.38 21.8893 42.992 21.7053 42.656C21.5213 42.312 21.2653 42.048 20.9373 41.864C20.6173 41.68 20.2533 41.588 19.8453 41.588C19.4373 41.588 19.0693 41.68 18.7413 41.864C18.4213 42.048 18.1653 42.312 17.9733 42.656C17.7893 42.992 17.6973 43.38 17.6973 43.82C17.6973 44.26 17.7893 44.652 17.9733 44.996C18.1653 45.332 18.4213 45.596 18.7413 45.788C19.0693 45.972 19.4373 46.064 19.8453 46.064ZM32.6945 40.58C33.4945 40.58 34.1265 40.812 34.5905 41.276C35.0625 41.74 35.2985 42.428 35.2985 43.34V47H34.1465V43.472C34.1465 42.856 34.0025 42.392 33.7145 42.08C33.4345 41.768 33.0305 41.612 32.5025 41.612C31.9185 41.612 31.4545 41.796 31.1105 42.164C30.7665 42.524 30.5945 43.044 30.5945 43.724V47H29.4425V43.472C29.4425 42.856 29.2985 42.392 29.0105 42.08C28.7305 41.768 28.3265 41.612 27.7985 41.612C27.2145 41.612 26.7505 41.796 26.4065 42.164C26.0625 42.524 25.8905 43.044 25.8905 43.724V47H24.7385V40.64H25.8425V41.588C26.0745 41.26 26.3785 41.012 26.7545 40.844C27.1305 40.668 27.5585 40.58 28.0385 40.58C28.5345 40.58 28.9745 40.68 29.3585 40.88C29.7425 41.08 30.0385 41.372 30.2465 41.756C30.4865 41.388 30.8185 41.1 31.2425 40.892C31.6745 40.684 32.1585 40.58 32.6945 40.58ZM43.2013 43.856C43.2013 43.944 43.1933 44.06 43.1773 44.204H38.0173C38.0893 44.764 38.3333 45.216 38.7493 45.56C39.1733 45.896 39.6973 46.064 40.3213 46.064C41.0813 46.064 41.6933 45.808 42.1573 45.296L42.7933 46.04C42.5053 46.376 42.1453 46.632 41.7133 46.808C41.2893 46.984 40.8133 47.072 40.2853 47.072C39.6133 47.072 39.0173 46.936 38.4973 46.664C37.9773 46.384 37.5733 45.996 37.2853 45.5C37.0053 45.004 36.8653 44.444 36.8653 43.82C36.8653 43.204 37.0013 42.648 37.2733 42.152C37.5533 41.656 37.9333 41.272 38.4133 41C38.9013 40.72 39.4493 40.58 40.0573 40.58C40.6653 40.58 41.2053 40.72 41.6773 41C42.1573 41.272 42.5293 41.656 42.7933 42.152C43.0653 42.648 43.2013 43.216 43.2013 43.856ZM40.0573 41.552C39.5053 41.552 39.0413 41.72 38.6653 42.056C38.2973 42.392 38.0813 42.832 38.0173 43.376H42.0973C42.0333 42.84 41.8133 42.404 41.4373 42.068C41.0693 41.724 40.6093 41.552 40.0573 41.552Z" fill="black"/>
</svg>
