<svg width="115" height="142" viewBox="0 0 115 142" fill="none" xmlns="http://www.w3.org/2000/svg">
<path d="M3.83314 0.897437C1.7598 0.897437 0.0571289 2.59344 0.0571289 4.67211V137.827C0.0571289 139.905 1.7598 141.6 3.83314 141.6H110.265C112.342 141.6 114.04 139.905 114.04 137.827V46.5774C114.04 44.4988 112.84 41.5974 111.373 40.1308L74.8105 3.56811C73.3385 2.09744 70.4398 0.897437 68.3638 0.897437H3.83314Z" fill="#918F90"/>
<path d="M6.98408 3.41347C4.90542 3.41347 3.2041 5.1148 3.2041 7.18813V136.569C3.2041 138.644 4.90542 140.345 6.98408 140.345H109.008C111.084 140.345 112.784 138.644 112.784 136.569V47.2028C112.784 45.1295 111.581 42.2281 110.113 40.7561L75.4401 6.08413C73.9694 4.61613 71.0681 3.41347 68.9948 3.41347H6.98408" fill="url(#paint0_linear_334_492)"/>
<path d="M74.7866 13.4373V32.3066C74.7866 36.2826 78.016 39.5093 81.984 39.5093H101.597L74.7866 13.4373Z" fill="url(#paint1_linear_334_492)"/>
<path d="M73.3091 36.72L71.5731 5.66804L68.9038 41.1267C68.9038 43.2014 70.6012 44.9014 72.6798 44.9014H107.028L77.0851 40.496C75.0051 40.496 73.3091 38.796 73.3091 36.72" fill="url(#paint2_radial_334_492)"/>
<path d="M3.2041 140.345H112.784C112.784 140.345 70.4694 130.905 3.2041 140.345Z" fill="url(#paint3_linear_334_492)"/>
<path d="M112.784 102.015C112.784 103.819 111.26 105.299 109.396 105.299H6.59076C4.72809 105.299 3.2041 103.819 3.2041 102.015V63.6962C3.2041 61.8895 4.72809 60.4122 6.59076 60.4122H109.396C111.26 60.4122 112.784 61.8895 112.784 63.6962V102.015" fill="#951A1F"/>
<path d="M112.784 103.944C112.784 105.751 111.26 107.229 109.396 107.229H6.59076C4.72809 107.229 3.2041 105.751 3.2041 103.944V65.6268C3.2041 63.8215 4.72809 62.3428 6.59076 62.3428H109.396C111.26 62.3428 112.784 63.8215 112.784 65.6268V103.944Z" fill="#D64062"/>
<path d="M26.2666 99.7961V96.6575C27.6199 97.0801 28.8306 97.2921 29.8946 97.2921C31.2293 97.2921 32.1666 96.9001 32.6999 96.1188C33.2359 95.3375 33.5079 93.9828 33.5079 92.0588V69.9841H37.0679V91.9495C37.0679 97.4215 34.4853 100.157 29.3173 100.157C28.5266 100.157 27.5066 100.036 26.2666 99.7961" fill="white"/>
<path d="M46.9734 82.4747H48.4068C50.5068 82.4747 52.1334 81.9853 53.2788 81.0067C54.4268 80.028 55.0001 78.6373 55.0001 76.8387C55.0001 75.3347 54.5468 74.26 53.6414 73.6133C52.7361 72.964 51.2388 72.6387 49.1494 72.6387H46.9734V82.4747ZM43.4121 95.1187V69.984H50.2507C52.2201 69.984 53.7401 70.144 54.8068 70.468C55.8788 70.788 56.7534 71.3587 57.4321 72.1733C58.3268 73.2507 58.7708 74.7147 58.7708 76.572C58.7708 79.244 57.8694 81.3373 56.0628 82.8547C54.2561 84.3733 51.7521 85.1306 48.5468 85.1306H46.9734V95.1187H43.4121Z" fill="white"/>
<path d="M81.5146 94.4427C78.4746 95.3134 75.8199 95.7507 73.5599 95.7507C69.5692 95.7507 66.5066 94.6161 64.3759 92.3441C62.2452 90.0734 61.1772 86.8081 61.1772 82.5507C61.1772 78.3614 62.2599 75.1107 64.4239 72.8067C66.5932 70.5014 69.6372 69.3507 73.5626 69.3507C76.0839 69.3507 78.7226 69.7307 81.4839 70.4961V73.7854C78.0212 72.5974 75.3666 72.0054 73.5226 72.0054C70.8066 72.0054 68.6972 72.9254 67.1972 74.7667C65.6999 76.6107 64.9479 79.2121 64.9479 82.5667C64.9479 85.8894 65.7519 88.4747 67.3559 90.3241C68.9626 92.1721 71.2106 93.0974 74.1066 93.0974C75.2919 93.0974 76.5732 92.8854 77.9532 92.4681V84.2667H81.5146V94.4427Z" fill="white"/>
</svg>
