<svg width="80" height="100" viewBox="0 0 80 100" fill="none" xmlns="http://www.w3.org/2000/svg">
<path d="M0.582947 14.2613C0.582947 6.38499 6.96793 0 14.8442 0H65.4717C73.348 0 79.733 6.38499 79.733 14.2613V64.8888C79.733 72.765 73.348 79.15 65.4717 79.15H14.8442C6.96794 79.15 0.582947 72.765 0.582947 64.8888V14.2613Z" fill="#F6B8BF"/>
<path d="M17.4683 20.4507V21.7627C17.4683 23.7318 19.0645 25.328 21.0336 25.328H35.2236C35.6174 25.328 35.9366 25.6473 35.9366 26.0411V40.231C35.9366 42.2001 37.5329 43.7963 39.5019 43.7963H52.9788C53.7665 43.7963 54.405 44.4348 54.405 45.2225V52.3959C54.405 53.1835 53.7665 53.822 52.9788 53.822H21.5613C19.5922 53.822 17.996 55.4183 17.996 57.3873V58.6994C17.996 60.6684 19.5922 62.2647 21.5613 62.2647H58.5693C60.9321 62.2647 62.8476 60.3492 62.8476 57.9863V39.6321C62.8476 37.2692 60.9321 35.3537 58.5693 35.3537H45.8054C45.0178 35.3537 44.3793 34.7152 44.3793 33.9276V26.0411C44.3793 25.6473 44.6985 25.328 45.0924 25.328H59.2823C61.2514 25.328 62.8476 23.7318 62.8476 21.7627V20.4507C62.8476 18.4816 61.2514 16.8853 59.2823 16.8853H21.0336C19.0645 16.8853 17.4683 18.4816 17.4683 20.4507Z" fill="white"/>
<path d="M5.09686 100C4.30774 100 3.54238 99.8954 2.8008 99.6862C2.06872 99.4676 1.47925 99.1871 1.0324 98.8448L1.81677 97.105C2.24461 97.4187 2.75326 97.6707 3.34272 97.8608C3.93219 98.051 4.52166 98.146 5.11112 98.146C5.76714 98.146 6.25202 98.051 6.56577 97.8608C6.87952 97.6612 7.03639 97.3997 7.03639 97.0764C7.03639 96.8388 6.94132 96.6439 6.75117 96.4917C6.57052 96.3301 6.33284 96.2017 6.0381 96.1067C5.75288 96.0116 5.36307 95.907 4.86868 95.7929C4.10808 95.6123 3.48534 95.4316 3.00045 95.251C2.51557 95.0704 2.09724 94.7804 1.74546 94.3811C1.40319 93.9817 1.23206 93.4493 1.23206 92.7838C1.23206 92.2038 1.38893 91.6809 1.70268 91.2151C2.01643 90.7397 2.48705 90.3641 3.11454 90.0884C3.75155 89.8127 4.52641 89.6748 5.43913 89.6748C6.07613 89.6748 6.69888 89.7509 7.30736 89.903C7.91584 90.0551 8.44826 90.2738 8.90462 90.559L8.19156 92.3132C7.26933 91.7903 6.3471 91.5288 5.42487 91.5288C4.77836 91.5288 4.29823 91.6334 3.98448 91.8426C3.68024 92.0517 3.52812 92.3274 3.52812 92.6697C3.52812 93.012 3.70401 93.2687 4.05579 93.4398C4.41707 93.6014 4.96376 93.7631 5.69583 93.9247C6.45643 94.1053 7.07918 94.286 7.56406 94.4666C8.04894 94.6473 8.46252 94.9325 8.80479 95.3223C9.15657 95.7121 9.33246 96.2398 9.33246 96.9053C9.33246 97.4757 9.17083 97.9987 8.84757 98.474C8.53383 98.9399 8.05845 99.3107 7.42145 99.5864C6.78444 99.8621 6.00958 100 5.09686 100Z" fill="#F6B8BF"/>
<path d="M20.5803 92.0422C21.5405 92.0422 22.3011 92.3274 22.8621 92.8979C23.4325 93.4588 23.7177 94.305 23.7177 95.4364V99.8289H21.493V95.7787C21.493 95.1702 21.3646 94.7186 21.1079 94.4238C20.8607 94.1196 20.5042 93.9675 20.0383 93.9675C19.5154 93.9675 19.1018 94.1386 18.7976 94.4809C18.4934 94.8137 18.3412 95.3128 18.3412 95.9783V99.8289H16.1165V95.7787C16.1165 94.5712 15.6316 93.9675 14.6618 93.9675C14.1484 93.9675 13.7396 94.1386 13.4354 94.4809C13.1311 94.8137 12.979 95.3128 12.979 95.9783V99.8289H10.7542V92.1563H12.8792V93.0405C13.1644 92.7172 13.5114 92.47 13.9202 92.2989C14.3386 92.1278 14.7949 92.0422 15.2893 92.0422C15.8312 92.0422 16.3209 92.1515 16.7582 92.3702C17.1956 92.5794 17.5474 92.8884 17.8136 93.2972C18.1273 92.8979 18.5219 92.5889 18.9972 92.3702C19.4821 92.1515 20.0098 92.0422 20.5803 92.0422Z" fill="#F6B8BF"/>
<path d="M28.8065 92.0422C29.995 92.0422 30.9077 92.3274 31.5447 92.8979C32.1817 93.4588 32.5002 94.3098 32.5002 95.4507V99.8289H30.4181V98.8734C29.9997 99.5864 29.2201 99.943 28.0792 99.943C27.4898 99.943 26.9764 99.8431 26.539 99.6435C26.1112 99.4438 25.7832 99.1681 25.555 98.8163C25.3268 98.4645 25.2127 98.0652 25.2127 97.6184C25.2127 96.9053 25.4789 96.3444 26.0113 95.9355C26.5533 95.5267 27.3852 95.3223 28.5071 95.3223H30.2755C30.2755 94.8374 30.1281 94.4666 29.8334 94.2099C29.5386 93.9437 29.0965 93.8106 28.5071 93.8106C28.0982 93.8106 27.6942 93.8772 27.2949 94.0103C26.905 94.1339 26.5723 94.305 26.2966 94.5237L25.4979 92.9692C25.9163 92.6745 26.4154 92.4463 26.9954 92.2847C27.5848 92.123 28.1886 92.0422 28.8065 92.0422ZM28.6354 98.4455C29.0157 98.4455 29.3532 98.3599 29.648 98.1888C29.9427 98.0082 30.1519 97.7467 30.2755 97.4044V96.6201H28.7495C27.8368 96.6201 27.3804 96.9196 27.3804 97.5185C27.3804 97.8038 27.4898 98.0319 27.7084 98.2031C27.9366 98.3647 28.2456 98.4455 28.6354 98.4455Z" fill="#F6B8BF"/>
<path d="M36.6387 93.1689C36.9049 92.7981 37.2614 92.5176 37.7083 92.3274C38.1646 92.1373 38.6875 92.0422 39.277 92.0422V94.0958C39.0298 94.0768 38.8634 94.0673 38.7779 94.0673C38.1408 94.0673 37.6417 94.2479 37.2804 94.6092C36.9191 94.961 36.7385 95.4934 36.7385 96.2065V99.8289H34.5137V92.1563H36.6387V93.1689Z" fill="#F6B8BF"/>
<path d="M42.5739 91.7285H39.3794V89.846H48.0788V91.7285H44.8842V99.8289H42.5739V91.7285Z" fill="#F6B8BF"/>
<path d="M51.8697 92.0422C53.0581 92.0422 53.9709 92.3274 54.6079 92.8979C55.2449 93.4588 55.5634 94.3098 55.5634 95.4507V99.8289H53.4812V98.8734C53.0629 99.5864 52.2833 99.943 51.1424 99.943C50.5529 99.943 50.0395 99.8431 49.6021 99.6435C49.1743 99.4438 48.8463 99.1681 48.6181 98.8163C48.3899 98.4645 48.2758 98.0652 48.2758 97.6184C48.2758 96.9053 48.5421 96.3444 49.0745 95.9355C49.6164 95.5267 50.4483 95.3223 51.5702 95.3223H53.3386C53.3386 94.8374 53.1912 94.4666 52.8965 94.2099C52.6018 93.9437 52.1597 93.8106 51.5702 93.8106C51.1614 93.8106 50.7573 93.8772 50.358 94.0103C49.9682 94.1339 49.6354 94.305 49.3597 94.5237L48.5611 92.9692C48.9794 92.6745 49.4785 92.4463 50.0585 92.2847C50.648 92.123 51.2517 92.0422 51.8697 92.0422ZM51.6986 98.4455C52.0789 98.4455 52.4164 98.3599 52.7111 98.1888C53.0058 98.0082 53.215 97.7467 53.3386 97.4044V96.6201H51.8126C50.8999 96.6201 50.4436 96.9196 50.4436 97.5185C50.4436 97.8038 50.5529 98.0319 50.7716 98.2031C50.9998 98.3647 51.3087 98.4455 51.6986 98.4455Z" fill="#F6B8BF"/>
<path d="M62.112 92.0422C62.825 92.0422 63.4715 92.2086 64.0515 92.5414C64.641 92.8646 65.1021 93.3257 65.4348 93.9247C65.7676 94.5142 65.934 95.2035 65.934 95.9926C65.934 96.7817 65.7676 97.4757 65.4348 98.0747C65.1021 98.6642 64.641 99.1253 64.0515 99.4581C63.4715 99.7813 62.825 99.943 62.112 99.943C61.0566 99.943 60.2532 99.6102 59.7018 98.9447V99.8289H57.5769V89.247H59.8016V92.9692C60.3626 92.3512 61.1327 92.0422 62.112 92.0422ZM61.7269 98.1175C62.2974 98.1175 62.7632 97.9274 63.1245 97.5471C63.4953 97.1573 63.6807 96.6391 63.6807 95.9926C63.6807 95.3461 63.4953 94.8327 63.1245 94.4524C62.7632 94.0626 62.2974 93.8677 61.7269 93.8677C61.1564 93.8677 60.6858 94.0626 60.315 94.4524C59.9537 94.8327 59.7731 95.3461 59.7731 95.9926C59.7731 96.6391 59.9537 97.1573 60.315 97.5471C60.6858 97.9274 61.1564 98.1175 61.7269 98.1175Z" fill="#F6B8BF"/>
<path d="M67.4233 89.247H69.648V99.8289H67.4233V89.247Z" fill="#F6B8BF"/>
<path d="M79.2285 96.0211C79.2285 96.0496 79.2142 96.2493 79.1857 96.6201H73.3814C73.4859 97.0955 73.7331 97.471 74.1229 97.7467C74.5128 98.0224 74.9976 98.1603 75.5776 98.1603C75.9769 98.1603 76.3287 98.1032 76.6329 97.9892C76.9467 97.8656 77.2367 97.6754 77.5029 97.4187L78.6866 98.7022C77.964 99.5294 76.9086 99.943 75.5206 99.943C74.6554 99.943 73.89 99.7766 73.2245 99.4438C72.559 99.1015 72.0456 98.6309 71.6843 98.0319C71.323 97.433 71.1423 96.7532 71.1423 95.9926C71.1423 95.2415 71.3182 94.5665 71.67 93.9675C72.0313 93.359 72.5209 92.8884 73.1389 92.5556C73.7664 92.2133 74.4652 92.0422 75.2353 92.0422C75.9864 92.0422 76.6662 92.2038 77.2747 92.5271C77.8832 92.8503 78.3585 93.3162 78.7008 93.9247C79.0526 94.5237 79.2285 95.2225 79.2285 96.0211ZM75.2496 93.725C74.7457 93.725 74.3226 93.8676 73.9803 94.1529C73.6381 94.4381 73.4289 94.8279 73.3528 95.3223H77.1321C77.056 94.8374 76.8469 94.4524 76.5046 94.1671C76.1623 93.8724 75.744 93.725 75.2496 93.725Z" fill="#F6B8BF"/>
</svg>
