<svg width="112" height="145" viewBox="0 0 112 145" fill="none" xmlns="http://www.w3.org/2000/svg">
<rect x="0.657959" width="111" height="111" rx="20" fill="#F6B8BF"/>
<path d="M24.338 28.68V30.52C24.338 33.2814 26.5766 35.52 29.338 35.52H49.238C49.7903 35.52 50.238 35.9677 50.238 36.52V56.42C50.238 59.1814 52.4766 61.42 55.238 61.42H74.138C75.2426 61.42 76.138 62.3154 76.138 63.42V73.48C76.138 74.5846 75.2426 75.48 74.138 75.48H30.078C27.3166 75.48 25.078 77.7186 25.078 80.48V82.32C25.078 85.0814 27.3166 87.32 30.078 87.32H81.978C85.2917 87.32 87.978 84.6337 87.978 81.32V55.58C87.978 52.2663 85.2917 49.58 81.978 49.58H64.078C62.9734 49.58 62.078 48.6846 62.078 47.58V36.52C62.078 35.9677 62.5257 35.52 63.078 35.52H82.978C85.7394 35.52 87.978 33.2814 87.978 30.52V28.68C87.978 25.9186 85.7394 23.68 82.978 23.68H29.338C26.5766 23.68 24.338 25.9186 24.338 28.68Z" fill="white"/>
<path d="M6.98827 140.24C5.88161 140.24 4.80827 140.093 3.76827 139.8C2.7416 139.493 1.91494 139.1 1.28827 138.62L2.38827 136.18C2.98827 136.62 3.7016 136.973 4.52827 137.24C5.35494 137.507 6.1816 137.64 7.00827 137.64C7.92827 137.64 8.60827 137.507 9.04827 137.24C9.48827 136.96 9.70827 136.593 9.70827 136.14C9.70827 135.807 9.57494 135.533 9.30827 135.32C9.05494 135.093 8.72161 134.913 8.30827 134.78C7.90827 134.647 7.36161 134.5 6.66827 134.34C5.60161 134.087 4.72827 133.833 4.04827 133.58C3.36827 133.327 2.7816 132.92 2.28827 132.36C1.80827 131.8 1.56827 131.053 1.56827 130.12C1.56827 129.307 1.78827 128.573 2.22827 127.92C2.66827 127.253 3.32827 126.727 4.20827 126.34C5.10161 125.953 6.18827 125.76 7.46827 125.76C8.36161 125.76 9.23494 125.867 10.0883 126.08C10.9416 126.293 11.6883 126.6 12.3283 127L11.3283 129.46C10.0349 128.727 8.74161 128.36 7.44827 128.36C6.54161 128.36 5.86827 128.507 5.42827 128.8C5.00161 129.093 4.78827 129.48 4.78827 129.96C4.78827 130.44 5.03494 130.8 5.52827 131.04C6.03494 131.267 6.80161 131.493 7.82827 131.72C8.89494 131.973 9.76827 132.227 10.4483 132.48C11.1283 132.733 11.7083 133.133 12.1883 133.68C12.6816 134.227 12.9283 134.967 12.9283 135.9C12.9283 136.7 12.7016 137.433 12.2483 138.1C11.8083 138.753 11.1416 139.273 10.2483 139.66C9.35494 140.047 8.26827 140.24 6.98827 140.24ZM28.7022 129.08C30.0488 129.08 31.1155 129.48 31.9022 130.28C32.7022 131.067 33.1022 132.253 33.1022 133.84V140H29.9822V134.32C29.9822 133.467 29.8022 132.833 29.4422 132.42C29.0955 131.993 28.5955 131.78 27.9422 131.78C27.2088 131.78 26.6288 132.02 26.2022 132.5C25.7755 132.967 25.5622 133.667 25.5622 134.6V140H22.4422V134.32C22.4422 132.627 21.7622 131.78 20.4022 131.78C19.6822 131.78 19.1088 132.02 18.6822 132.5C18.2555 132.967 18.0422 133.667 18.0422 134.6V140H14.9222V129.24H17.9022V130.48C18.3022 130.027 18.7888 129.68 19.3622 129.44C19.9488 129.2 20.5888 129.08 21.2822 129.08C22.0422 129.08 22.7288 129.233 23.3422 129.54C23.9555 129.833 24.4488 130.267 24.8222 130.84C25.2622 130.28 25.8155 129.847 26.4822 129.54C27.1622 129.233 27.9022 129.08 28.7022 129.08ZM40.2387 129.08C41.9054 129.08 43.1854 129.48 44.0787 130.28C44.9721 131.067 45.4187 132.26 45.4187 133.86V140H42.4987V138.66C41.9121 139.66 40.8187 140.16 39.2187 140.16C38.3921 140.16 37.6721 140.02 37.0587 139.74C36.4587 139.46 35.9987 139.073 35.6787 138.58C35.3587 138.087 35.1987 137.527 35.1987 136.9C35.1987 135.9 35.5721 135.113 36.3187 134.54C37.0787 133.967 38.2454 133.68 39.8187 133.68H42.2987C42.2987 133 42.0921 132.48 41.6787 132.12C41.2654 131.747 40.6454 131.56 39.8187 131.56C39.2454 131.56 38.6787 131.653 38.1187 131.84C37.5721 132.013 37.1054 132.253 36.7187 132.56L35.5987 130.38C36.1854 129.967 36.8854 129.647 37.6987 129.42C38.5254 129.193 39.3721 129.08 40.2387 129.08ZM39.9987 138.06C40.5321 138.06 41.0054 137.94 41.4187 137.7C41.8321 137.447 42.1254 137.08 42.2987 136.6V135.5H40.1587C38.8787 135.5 38.2387 135.92 38.2387 136.76C38.2387 137.16 38.3921 137.48 38.6987 137.72C39.0187 137.947 39.4521 138.06 39.9987 138.06ZM51.2225 130.66C51.5958 130.14 52.0958 129.747 52.7225 129.48C53.3625 129.213 54.0958 129.08 54.9225 129.08V131.96C54.5758 131.933 54.3425 131.92 54.2225 131.92C53.3292 131.92 52.6292 132.173 52.1225 132.68C51.6158 133.173 51.3625 133.92 51.3625 134.92V140H48.2425V129.24H51.2225V130.66ZM59.5461 128.64H55.0661V126H67.2661V128.64H62.7861V140H59.5461V128.64ZM72.5825 129.08C74.2492 129.08 75.5292 129.48 76.4225 130.28C77.3158 131.067 77.7625 132.26 77.7625 133.86V140H74.8425V138.66C74.2558 139.66 73.1625 140.16 71.5625 140.16C70.7358 140.16 70.0158 140.02 69.4025 139.74C68.8025 139.46 68.3425 139.073 68.0225 138.58C67.7025 138.087 67.5425 137.527 67.5425 136.9C67.5425 135.9 67.9158 135.113 68.6625 134.54C69.4225 133.967 70.5892 133.68 72.1625 133.68H74.6425C74.6425 133 74.4358 132.48 74.0225 132.12C73.6092 131.747 72.9892 131.56 72.1625 131.56C71.5892 131.56 71.0225 131.653 70.4625 131.84C69.9158 132.013 69.4492 132.253 69.0625 132.56L67.9425 130.38C68.5292 129.967 69.2292 129.647 70.0425 129.42C70.8692 129.193 71.7158 129.08 72.5825 129.08ZM72.3425 138.06C72.8758 138.06 73.3492 137.94 73.7625 137.7C74.1758 137.447 74.4692 137.08 74.6425 136.6V135.5H72.5025C71.2225 135.5 70.5825 135.92 70.5825 136.76C70.5825 137.16 70.7358 137.48 71.0425 137.72C71.3625 137.947 71.7958 138.06 72.3425 138.06ZM86.9462 129.08C87.9462 129.08 88.8529 129.313 89.6662 129.78C90.4929 130.233 91.1396 130.88 91.6062 131.72C92.0729 132.547 92.3062 133.513 92.3062 134.62C92.3062 135.727 92.0729 136.7 91.6062 137.54C91.1396 138.367 90.4929 139.013 89.6662 139.48C88.8529 139.933 87.9462 140.16 86.9462 140.16C85.4662 140.16 84.3396 139.693 83.5662 138.76V140H80.5862V125.16H83.7062V130.38C84.4929 129.513 85.5729 129.08 86.9462 129.08ZM86.4062 137.6C87.2062 137.6 87.8596 137.333 88.3662 136.8C88.8862 136.253 89.1462 135.527 89.1462 134.62C89.1462 133.713 88.8862 132.993 88.3662 132.46C87.8596 131.913 87.2062 131.64 86.4062 131.64C85.6062 131.64 84.9462 131.913 84.4262 132.46C83.9196 132.993 83.6662 133.713 83.6662 134.62C83.6662 135.527 83.9196 136.253 84.4262 136.8C84.9462 137.333 85.6062 137.6 86.4062 137.6ZM94.3948 125.16H97.5148V140H94.3948V125.16ZM110.95 134.66C110.95 134.7 110.93 134.98 110.89 135.5H102.75C102.897 136.167 103.244 136.693 103.79 137.08C104.337 137.467 105.017 137.66 105.83 137.66C106.39 137.66 106.884 137.58 107.31 137.42C107.75 137.247 108.157 136.98 108.53 136.62L110.19 138.42C109.177 139.58 107.697 140.16 105.75 140.16C104.537 140.16 103.464 139.927 102.53 139.46C101.597 138.98 100.877 138.32 100.37 137.48C99.8638 136.64 99.6105 135.687 99.6105 134.62C99.6105 133.567 99.8571 132.62 100.35 131.78C100.857 130.927 101.544 130.267 102.41 129.8C103.29 129.32 104.27 129.08 105.35 129.08C106.404 129.08 107.357 129.307 108.21 129.76C109.064 130.213 109.73 130.867 110.21 131.72C110.704 132.56 110.95 133.54 110.95 134.66ZM105.37 131.44C104.664 131.44 104.07 131.64 103.59 132.04C103.11 132.44 102.817 132.987 102.71 133.68H108.01C107.904 133 107.61 132.46 107.13 132.06C106.65 131.647 106.064 131.44 105.37 131.44Z" fill="#F6B8BF"/>
</svg>
