<svg width="12" height="22" viewBox="0 0 12 22" fill="none" xmlns="http://www.w3.org/2000/svg">
<path d="M11.7071 1.70711C12.0976 1.31658 12.0976 0.683418 11.7071 0.292893C11.3166 -0.097631 10.6834 -0.097631 10.2929 0.292893L11.7071 1.70711ZM10.2929 21.7071C10.6834 22.0976 11.3166 22.0976 11.7071 21.7071C12.0976 21.3166 12.0976 20.6834 11.7071 20.2929L10.2929 21.7071ZM1.70711 11.7071L2.41421 11L1.70711 11.7071ZM10.2929 0.292893L0.999999 9.58579L2.41421 11L11.7071 1.70711L10.2929 0.292893ZM1 12.4142L10.2929 21.7071L11.7071 20.2929L2.41421 11L1 12.4142ZM0.999999 9.58579C0.218949 10.3668 0.218952 11.6332 1 12.4142L2.41421 11L2.41421 11L0.999999 9.58579Z" fill="#1C1C24"/>
</svg>
