<svg width="111" height="111" viewBox="0 0 111 111" fill="none" xmlns="http://www.w3.org/2000/svg">
<rect width="111" height="111" rx="20" fill="#F9FBFD"/>
<path d="M23.6801 28.68V30.52C23.6801 33.2814 25.9186 35.52 28.68 35.52H48.5801C49.1323 35.52 49.5801 35.9677 49.5801 36.52V56.42C49.5801 59.1814 51.8186 61.42 54.58 61.42H73.4801C74.5846 61.42 75.4801 62.3154 75.4801 63.42V73.48C75.4801 74.5846 74.5846 75.48 73.4801 75.48H29.4201C26.6586 75.48 24.4201 77.7186 24.4201 80.48V82.32C24.4201 85.0814 26.6586 87.32 29.4201 87.32H81.3201C84.6338 87.32 87.3201 84.6337 87.3201 81.32V55.58C87.3201 52.2663 84.6338 49.58 81.3201 49.58H63.4201C62.3155 49.58 61.4201 48.6846 61.4201 47.58V36.52C61.4201 35.9677 61.8678 35.52 62.4201 35.52H82.3201C85.0815 35.52 87.3201 33.2814 87.3201 30.52V28.68C87.3201 25.9186 85.0815 23.68 82.3201 23.68H28.6801C25.9186 23.68 23.6801 25.9186 23.6801 28.68Z" fill="#AADDE5"/>
</svg>
