<svg width="81" height="80" viewBox="0 0 81 80" fill="none" xmlns="http://www.w3.org/2000/svg">
<path d="M0.157959 14.4144C0.157959 6.45356 6.61151 0 14.5724 0H65.7436C73.7044 0 80.158 6.45355 80.158 14.4144V65.5856C80.158 73.5465 73.7044 80 65.7436 80H14.5724C6.61151 80 0.157959 73.5465 0.157959 65.5856V14.4144Z" fill="#AADDE5"/>
<path d="M17.2246 20.6703V21.9964C17.2246 23.9866 18.838 25.6 20.8282 25.6H35.1706C35.5686 25.6 35.8913 25.9227 35.8913 26.3207V40.6631C35.8913 42.6533 37.5047 44.2667 39.4949 44.2667H53.1165C53.9126 44.2667 54.558 44.912 54.558 45.7081V52.9586C54.558 53.7547 53.9126 54.4 53.1165 54.4H21.3616C19.3713 54.4 17.758 56.0134 17.758 58.0036V59.3297C17.758 61.32 19.3713 62.9333 21.3616 62.9333H58.767C61.1552 62.9333 63.0913 60.9973 63.0913 58.609V40.0577C63.0913 37.6694 61.1552 35.7333 58.767 35.7333H45.8661C45.07 35.7333 44.4246 35.088 44.4246 34.2919V26.3207C44.4246 25.9227 44.7473 25.6 45.1454 25.6H59.4877C61.4779 25.6 63.0913 23.9866 63.0913 21.9964V20.6703C63.0913 18.6801 61.4779 17.0667 59.4877 17.0667H20.8282C18.838 17.0667 17.2246 18.6801 17.2246 20.6703Z" fill="white"/>
</svg>
