<svg width="112" height="145" viewBox="0 0 112 145" fill="none" xmlns="http://www.w3.org/2000/svg">
<rect x="0.5" width="111" height="111" rx="20" fill="#AADDE5"/>
<path d="M24.1799 28.68V30.52C24.1799 33.2814 26.4185 35.52 29.1799 35.52H49.0799C49.6322 35.52 50.0799 35.9677 50.0799 36.52V56.42C50.0799 59.1814 52.3185 61.42 55.0799 61.42H73.9799C75.0845 61.42 75.9799 62.3154 75.9799 63.42V73.48C75.9799 74.5846 75.0845 75.48 73.9799 75.48H29.9199C27.1585 75.48 24.9199 77.7186 24.9199 80.48V82.32C24.9199 85.0814 27.1585 87.32 29.9199 87.32H81.8199C85.1336 87.32 87.8199 84.6337 87.8199 81.32V55.58C87.8199 52.2663 85.1336 49.58 81.8199 49.58H63.9199C62.8154 49.58 61.9199 48.6846 61.9199 47.58V36.52C61.9199 35.9677 62.3676 35.52 62.9199 35.52H82.8199C85.5814 35.52 87.8199 33.2814 87.8199 30.52V28.68C87.8199 25.9186 85.5814 23.68 82.8199 23.68H29.1799C26.4185 23.68 24.1799 25.9186 24.1799 28.68Z" fill="white"/>
<path d="M6.83031 140.24C5.72365 140.24 4.65031 140.093 3.61031 139.8C2.58365 139.493 1.75698 139.1 1.13031 138.62L2.23031 136.18C2.83031 136.62 3.54365 136.973 4.37031 137.24C5.19698 137.507 6.02365 137.64 6.85031 137.64C7.77031 137.64 8.45031 137.507 8.89031 137.24C9.33031 136.96 9.55031 136.593 9.55031 136.14C9.55031 135.807 9.41698 135.533 9.15031 135.32C8.89698 135.093 8.56365 134.913 8.15031 134.78C7.75031 134.647 7.20365 134.5 6.51031 134.34C5.44365 134.087 4.57031 133.833 3.89031 133.58C3.21031 133.327 2.62365 132.92 2.13031 132.36C1.65031 131.8 1.41031 131.053 1.41031 130.12C1.41031 129.307 1.63031 128.573 2.07031 127.92C2.51031 127.253 3.17031 126.727 4.05031 126.34C4.94365 125.953 6.03031 125.76 7.31031 125.76C8.20365 125.76 9.07698 125.867 9.93031 126.08C10.7836 126.293 11.5303 126.6 12.1703 127L11.1703 129.46C9.87698 128.727 8.58365 128.36 7.29031 128.36C6.38365 128.36 5.71031 128.507 5.27031 128.8C4.84365 129.093 4.63031 129.48 4.63031 129.96C4.63031 130.44 4.87698 130.8 5.37031 131.04C5.87698 131.267 6.64365 131.493 7.67031 131.72C8.73698 131.973 9.61031 132.227 10.2903 132.48C10.9703 132.733 11.5503 133.133 12.0303 133.68C12.5236 134.227 12.7703 134.967 12.7703 135.9C12.7703 136.7 12.5436 137.433 12.0903 138.1C11.6503 138.753 10.9836 139.273 10.0903 139.66C9.19698 140.047 8.11031 140.24 6.83031 140.24ZM28.5442 129.08C29.8909 129.08 30.9576 129.48 31.7442 130.28C32.5442 131.067 32.9442 132.253 32.9442 133.84V140H29.8242V134.32C29.8242 133.467 29.6442 132.833 29.2842 132.42C28.9376 131.993 28.4376 131.78 27.7842 131.78C27.0509 131.78 26.4709 132.02 26.0442 132.5C25.6176 132.967 25.4042 133.667 25.4042 134.6V140H22.2842V134.32C22.2842 132.627 21.6042 131.78 20.2442 131.78C19.5242 131.78 18.9509 132.02 18.5242 132.5C18.0976 132.967 17.8842 133.667 17.8842 134.6V140H14.7642V129.24H17.7442V130.48C18.1442 130.027 18.6309 129.68 19.2042 129.44C19.7909 129.2 20.4309 129.08 21.1242 129.08C21.8842 129.08 22.5709 129.233 23.1842 129.54C23.7976 129.833 24.2909 130.267 24.6642 130.84C25.1042 130.28 25.6576 129.847 26.3242 129.54C27.0042 129.233 27.7442 129.08 28.5442 129.08ZM40.0808 129.08C41.7474 129.08 43.0274 129.48 43.9208 130.28C44.8141 131.067 45.2608 132.26 45.2608 133.86V140H42.3408V138.66C41.7541 139.66 40.6608 140.16 39.0608 140.16C38.2341 140.16 37.5141 140.02 36.9008 139.74C36.3008 139.46 35.8408 139.073 35.5208 138.58C35.2008 138.087 35.0408 137.527 35.0408 136.9C35.0408 135.9 35.4141 135.113 36.1608 134.54C36.9208 133.967 38.0874 133.68 39.6608 133.68H42.1408C42.1408 133 41.9341 132.48 41.5208 132.12C41.1074 131.747 40.4874 131.56 39.6608 131.56C39.0874 131.56 38.5208 131.653 37.9608 131.84C37.4141 132.013 36.9474 132.253 36.5608 132.56L35.4408 130.38C36.0274 129.967 36.7274 129.647 37.5408 129.42C38.3674 129.193 39.2141 129.08 40.0808 129.08ZM39.8408 138.06C40.3741 138.06 40.8474 137.94 41.2608 137.7C41.6741 137.447 41.9674 137.08 42.1408 136.6V135.5H40.0008C38.7208 135.5 38.0808 135.92 38.0808 136.76C38.0808 137.16 38.2341 137.48 38.5408 137.72C38.8608 137.947 39.2941 138.06 39.8408 138.06ZM51.0645 130.66C51.4379 130.14 51.9379 129.747 52.5645 129.48C53.2045 129.213 53.9379 129.08 54.7645 129.08V131.96C54.4179 131.933 54.1845 131.92 54.0645 131.92C53.1712 131.92 52.4712 132.173 51.9645 132.68C51.4579 133.173 51.2045 133.92 51.2045 134.92V140H48.0845V129.24H51.0645V130.66ZM59.3881 128.64H54.9081V126H67.1081V128.64H62.6281V140H59.3881V128.64ZM72.4245 129.08C74.0912 129.08 75.3712 129.48 76.2645 130.28C77.1579 131.067 77.6045 132.26 77.6045 133.86V140H74.6845V138.66C74.0979 139.66 73.0045 140.16 71.4045 140.16C70.5779 140.16 69.8579 140.02 69.2445 139.74C68.6445 139.46 68.1845 139.073 67.8645 138.58C67.5445 138.087 67.3845 137.527 67.3845 136.9C67.3845 135.9 67.7579 135.113 68.5045 134.54C69.2645 133.967 70.4312 133.68 72.0045 133.68H74.4845C74.4845 133 74.2779 132.48 73.8645 132.12C73.4512 131.747 72.8312 131.56 72.0045 131.56C71.4312 131.56 70.8645 131.653 70.3045 131.84C69.7579 132.013 69.2912 132.253 68.9045 132.56L67.7845 130.38C68.3712 129.967 69.0712 129.647 69.8845 129.42C70.7112 129.193 71.5579 129.08 72.4245 129.08ZM72.1845 138.06C72.7179 138.06 73.1912 137.94 73.6045 137.7C74.0179 137.447 74.3112 137.08 74.4845 136.6V135.5H72.3445C71.0645 135.5 70.4245 135.92 70.4245 136.76C70.4245 137.16 70.5779 137.48 70.8845 137.72C71.2045 137.947 71.6379 138.06 72.1845 138.06ZM86.7883 129.08C87.7883 129.08 88.6949 129.313 89.5083 129.78C90.3349 130.233 90.9816 130.88 91.4483 131.72C91.9149 132.547 92.1483 133.513 92.1483 134.62C92.1483 135.727 91.9149 136.7 91.4483 137.54C90.9816 138.367 90.3349 139.013 89.5083 139.48C88.6949 139.933 87.7883 140.16 86.7883 140.16C85.3083 140.16 84.1816 139.693 83.4083 138.76V140H80.4283V125.16H83.5483V130.38C84.3349 129.513 85.4149 129.08 86.7883 129.08ZM86.2483 137.6C87.0483 137.6 87.7016 137.333 88.2083 136.8C88.7283 136.253 88.9883 135.527 88.9883 134.62C88.9883 133.713 88.7283 132.993 88.2083 132.46C87.7016 131.913 87.0483 131.64 86.2483 131.64C85.4483 131.64 84.7883 131.913 84.2683 132.46C83.7616 132.993 83.5083 133.713 83.5083 134.62C83.5083 135.527 83.7616 136.253 84.2683 136.8C84.7883 137.333 85.4483 137.6 86.2483 137.6ZM94.2369 125.16H97.3569V140H94.2369V125.16ZM110.793 134.66C110.793 134.7 110.773 134.98 110.733 135.5H102.593C102.739 136.167 103.086 136.693 103.633 137.08C104.179 137.467 104.859 137.66 105.673 137.66C106.233 137.66 106.726 137.58 107.153 137.42C107.593 137.247 107.999 136.98 108.373 136.62L110.033 138.42C109.019 139.58 107.539 140.16 105.593 140.16C104.379 140.16 103.306 139.927 102.373 139.46C101.439 138.98 100.719 138.32 100.213 137.48C99.7058 136.64 99.4525 135.687 99.4525 134.62C99.4525 133.567 99.6992 132.62 100.193 131.78C100.699 130.927 101.386 130.267 102.253 129.8C103.133 129.32 104.113 129.08 105.193 129.08C106.246 129.08 107.199 129.307 108.053 129.76C108.906 130.213 109.573 130.867 110.053 131.72C110.546 132.56 110.793 133.54 110.793 134.66ZM105.213 131.44C104.506 131.44 103.913 131.64 103.433 132.04C102.953 132.44 102.659 132.987 102.553 133.68H107.853C107.746 133 107.453 132.46 106.973 132.06C106.493 131.647 105.906 131.44 105.213 131.44Z" fill="#AADDE5"/>
</svg>
