<svg width="21" height="20" viewBox="0 0 21 20" fill="none" xmlns="http://www.w3.org/2000/svg">
<path d="M2.83817 2.22222H9.50484C10.116 2.22222 10.616 1.72222 10.616 1.11111C10.616 0.5 10.116 0 9.50484 0H2.83817C1.61595 0 0.615952 1 0.615952 2.22222V17.7778C0.615952 19 1.61595 20 2.83817 20H9.50484C10.116 20 10.616 19.5 10.616 18.8889C10.616 18.2778 10.116 17.7778 9.50484 17.7778H2.83817V2.22222Z" fill="#1C1C24"/>
<path d="M20.2271 9.61115L17.1271 6.51116C17.0498 6.43177 16.9506 6.37724 16.8421 6.35456C16.7337 6.33188 16.621 6.34208 16.5183 6.38384C16.4157 6.4256 16.3279 6.49703 16.2661 6.58899C16.2043 6.68095 16.1714 6.78926 16.1715 6.90004V8.88893H8.39373C7.78262 8.88893 7.28262 9.38893 7.28262 10C7.28262 10.6112 7.78262 11.1112 8.39373 11.1112H16.1715V13.1C16.1715 13.6 16.7715 13.8445 17.116 13.4889L20.216 10.3889C20.4382 10.1778 20.4382 9.82227 20.2271 9.61115Z" fill="#1C1C24"/>
</svg>
