<svg width="50" height="48" viewBox="0 0 50 48" fill="none" xmlns="http://www.w3.org/2000/svg">
<path d="M36 1.73333V22.2667C36 22.4612 35.9227 22.6477 35.7852 22.7852C35.6477 22.9227 35.4612 23 35.2667 23H14.7333C14.5388 23 14.3523 22.9227 14.2148 22.7852C14.0773 22.6477 14 22.4612 14 22.2667V1.73333C14 1.53884 14.0773 1.35232 14.2148 1.21479C14.3523 1.07726 14.5388 1 14.7333 1H35.2667C35.4612 1 35.6477 1.07726 35.7852 1.21479C35.9227 1.35232 36 1.53884 36 1.73333V1.73333Z" stroke="#1C1C24" stroke-width="2" stroke-linecap="round" stroke-linejoin="round"/>
<path d="M22.4309 7.73814C22.3194 7.67436 22.1932 7.64097 22.0648 7.6413C21.9364 7.64163 21.8103 7.67567 21.6992 7.74002C21.5881 7.80436 21.4958 7.89676 21.4316 8.00797C21.3674 8.11917 21.3335 8.24529 21.3333 8.3737V15.6251C21.3333 15.7537 21.367 15.8799 21.4311 15.9913C21.4952 16.1027 21.5875 16.1952 21.6987 16.2597C21.8098 16.3242 21.936 16.3584 22.0645 16.3588C22.193 16.3591 22.3194 16.3257 22.4309 16.2619L28.7742 12.6368C28.8865 12.5727 28.9798 12.48 29.0447 12.3682C29.1097 12.2563 29.1438 12.1293 29.1438 12C29.1438 11.8707 29.1097 11.7437 29.0447 11.6319C28.9798 11.5201 28.8865 11.4274 28.7742 11.3633L22.4309 7.73814V7.73814Z" stroke="#1C1C24" stroke-width="2" stroke-linecap="round" stroke-linejoin="round"/>
<path d="M15.2921 45L15.2801 38.88L12.2441 43.98H11.6921L8.65614 38.916V45H7.50414V36.6H8.48814L11.9921 42.504L15.4481 36.6H16.4321L16.4441 45H15.2921ZM24.5451 41.856C24.5451 41.944 24.5371 42.06 24.5211 42.204H19.3611C19.4331 42.764 19.6771 43.216 20.0931 43.56C20.5171 43.896 21.0411 44.064 21.6651 44.064C22.4251 44.064 23.0371 43.808 23.5011 43.296L24.1371 44.04C23.8491 44.376 23.4891 44.632 23.0571 44.808C22.6331 44.984 22.1571 45.072 21.6291 45.072C20.9571 45.072 20.3611 44.936 19.8411 44.664C19.3211 44.384 18.9171 43.996 18.6291 43.5C18.3491 43.004 18.2091 42.444 18.2091 41.82C18.2091 41.204 18.3451 40.648 18.6171 40.152C18.8971 39.656 19.2771 39.272 19.7571 39C20.2451 38.72 20.7931 38.58 21.4011 38.58C22.0091 38.58 22.5491 38.72 23.0211 39C23.5011 39.272 23.8731 39.656 24.1371 40.152C24.4091 40.648 24.5451 41.216 24.5451 41.856ZM21.4011 39.552C20.8491 39.552 20.3851 39.72 20.0091 40.056C19.6411 40.392 19.4251 40.832 19.3611 41.376H23.4411C23.3771 40.84 23.1571 40.404 22.7811 40.068C22.4131 39.724 21.9531 39.552 21.4011 39.552ZM32.1447 36.096V45H31.0407V43.992C30.7847 44.344 30.4607 44.612 30.0687 44.796C29.6767 44.98 29.2447 45.072 28.7727 45.072C28.1567 45.072 27.6047 44.936 27.1167 44.664C26.6287 44.392 26.2447 44.012 25.9647 43.524C25.6927 43.028 25.5567 42.46 25.5567 41.82C25.5567 41.18 25.6927 40.616 25.9647 40.128C26.2447 39.64 26.6287 39.26 27.1167 38.988C27.6047 38.716 28.1567 38.58 28.7727 38.58C29.2287 38.58 29.6487 38.668 30.0327 38.844C30.4167 39.012 30.7367 39.264 30.9927 39.6V36.096H32.1447ZM28.8687 44.064C29.2687 44.064 29.6327 43.972 29.9607 43.788C30.2887 43.596 30.5447 43.332 30.7287 42.996C30.9127 42.652 31.0047 42.26 31.0047 41.82C31.0047 41.38 30.9127 40.992 30.7287 40.656C30.5447 40.312 30.2887 40.048 29.9607 39.864C29.6327 39.68 29.2687 39.588 28.8687 39.588C28.4607 39.588 28.0927 39.68 27.7647 39.864C27.4447 40.048 27.1887 40.312 26.9967 40.656C26.8127 40.992 26.7207 41.38 26.7207 41.82C26.7207 42.26 26.8127 42.652 26.9967 42.996C27.1887 43.332 27.4447 43.596 27.7647 43.788C28.0927 43.972 28.4607 44.064 28.8687 44.064ZM34.3244 38.64H35.4764V45H34.3244V38.64ZM34.9004 37.416C34.6764 37.416 34.4884 37.344 34.3364 37.2C34.1924 37.056 34.1204 36.88 34.1204 36.672C34.1204 36.464 34.1924 36.288 34.3364 36.144C34.4884 35.992 34.6764 35.916 34.9004 35.916C35.1244 35.916 35.3084 35.988 35.4524 36.132C35.6044 36.268 35.6804 36.44 35.6804 36.648C35.6804 36.864 35.6044 37.048 35.4524 37.2C35.3084 37.344 35.1244 37.416 34.9004 37.416ZM39.992 38.58C40.872 38.58 41.544 38.796 42.008 39.228C42.48 39.66 42.716 40.304 42.716 41.16V45H41.624V44.16C41.432 44.456 41.156 44.684 40.796 44.844C40.444 44.996 40.024 45.072 39.536 45.072C38.824 45.072 38.252 44.9 37.82 44.556C37.396 44.212 37.184 43.76 37.184 43.2C37.184 42.64 37.388 42.192 37.796 41.856C38.204 41.512 38.852 41.34 39.74 41.34H41.564V41.112C41.564 40.616 41.42 40.236 41.132 39.972C40.844 39.708 40.42 39.576 39.86 39.576C39.484 39.576 39.116 39.64 38.756 39.768C38.396 39.888 38.092 40.052 37.844 40.26L37.364 39.396C37.692 39.132 38.084 38.932 38.54 38.796C38.996 38.652 39.48 38.58 39.992 38.58ZM39.728 44.184C40.168 44.184 40.548 44.088 40.868 43.896C41.188 43.696 41.42 43.416 41.564 43.056V42.168H39.788C38.812 42.168 38.324 42.496 38.324 43.152C38.324 43.472 38.448 43.724 38.696 43.908C38.944 44.092 39.288 44.184 39.728 44.184Z" fill="black"/>
</svg>
