<svg width="53" height="49" viewBox="0 0 53 49" fill="none" xmlns="http://www.w3.org/2000/svg">
<path d="M26.1716 16.8848C30.9365 16.8848 34.9575 18.3942 34.9575 19.7296C34.9575 24.1252 30.9101 23.4647 26.1716 23.4647C21.4079 23.4647 17.3857 24.1252 17.3857 19.7032C17.3857 18.3602 21.4332 16.8848 26.1716 16.8848ZM26.1716 1.5C29.3995 1.5 31.9857 4.08527 31.9857 7.31083C31.9857 10.5364 29.3995 13.1228 26.1716 13.1228C22.9449 13.1228 20.3576 10.5364 20.3576 7.31083C20.3576 4.08527 22.9449 1.5 26.1716 1.5Z" stroke="#1C1C24" stroke-width="2" stroke-linecap="round" stroke-linejoin="round"/>
<path d="M5.09743 37.1C5.82543 37.1 6.45743 37.22 6.99343 37.46C7.53743 37.7 7.95343 38.044 8.24143 38.492C8.52943 38.94 8.67343 39.472 8.67343 40.088C8.67343 40.696 8.52943 41.228 8.24143 41.684C7.95343 42.132 7.53743 42.476 6.99343 42.716C6.45743 42.956 5.82543 43.076 5.09743 43.076H3.20143V45.5H1.64143V37.1H5.09743ZM5.02543 41.756C5.70543 41.756 6.22143 41.612 6.57343 41.324C6.92543 41.036 7.10143 40.624 7.10143 40.088C7.10143 39.552 6.92543 39.14 6.57343 38.852C6.22143 38.564 5.70543 38.42 5.02543 38.42H3.20143V41.756H5.02543ZM12.4767 39.02C13.4207 39.02 14.1407 39.248 14.6367 39.704C15.1407 40.152 15.3927 40.832 15.3927 41.744V45.5H13.9767V44.72C13.7927 45 13.5287 45.216 13.1847 45.368C12.8487 45.512 12.4407 45.584 11.9607 45.584C11.4807 45.584 11.0607 45.504 10.7007 45.344C10.3407 45.176 10.0607 44.948 9.86068 44.66C9.66868 44.364 9.57268 44.032 9.57268 43.664C9.57268 43.088 9.78468 42.628 10.2087 42.284C10.6407 41.932 11.3167 41.756 12.2367 41.756H13.8927V41.66C13.8927 41.212 13.7567 40.868 13.4847 40.628C13.2207 40.388 12.8247 40.268 12.2967 40.268C11.9367 40.268 11.5807 40.324 11.2287 40.436C10.8847 40.548 10.5927 40.704 10.3527 40.904L9.76468 39.812C10.1007 39.556 10.5047 39.36 10.9767 39.224C11.4487 39.088 11.9487 39.02 12.4767 39.02ZM12.2727 44.492C12.6487 44.492 12.9807 44.408 13.2687 44.24C13.5647 44.064 13.7727 43.816 13.8927 43.496V42.752H12.3447C11.4807 42.752 11.0487 43.036 11.0487 43.604C11.0487 43.876 11.1567 44.092 11.3727 44.252C11.5887 44.412 11.8887 44.492 12.2727 44.492ZM21.1697 45.152C20.9937 45.296 20.7777 45.404 20.5217 45.476C20.2737 45.548 20.0097 45.584 19.7297 45.584C19.0257 45.584 18.4817 45.4 18.0977 45.032C17.7137 44.664 17.5217 44.128 17.5217 43.424V40.34H16.4657V39.14H17.5217V37.676H19.0217V39.14H20.7377V40.34H19.0217V43.388C19.0217 43.7 19.0977 43.94 19.2497 44.108C19.4017 44.268 19.6217 44.348 19.9097 44.348C20.2457 44.348 20.5257 44.26 20.7497 44.084L21.1697 45.152ZM22.4037 39.092H23.9037V45.5H22.4037V39.092ZM23.1597 38.036C22.8877 38.036 22.6597 37.952 22.4757 37.784C22.2917 37.608 22.1997 37.392 22.1997 37.136C22.1997 36.88 22.2917 36.668 22.4757 36.5C22.6597 36.324 22.8877 36.236 23.1597 36.236C23.4317 36.236 23.6597 36.32 23.8437 36.488C24.0277 36.648 24.1197 36.852 24.1197 37.1C24.1197 37.364 24.0277 37.588 23.8437 37.772C23.6677 37.948 23.4397 38.036 23.1597 38.036ZM31.8964 42.332C31.8964 42.436 31.8884 42.584 31.8724 42.776H26.8444C26.9324 43.248 27.1604 43.624 27.5284 43.904C27.9044 44.176 28.3684 44.312 28.9204 44.312C29.6244 44.312 30.2044 44.08 30.6604 43.616L31.4644 44.54C31.1764 44.884 30.8124 45.144 30.3724 45.32C29.9324 45.496 29.4364 45.584 28.8844 45.584C28.1804 45.584 27.5604 45.444 27.0244 45.164C26.4884 44.884 26.0724 44.496 25.7764 44C25.4884 43.496 25.3444 42.928 25.3444 42.296C25.3444 41.672 25.4844 41.112 25.7644 40.616C26.0524 40.112 26.4484 39.72 26.9524 39.44C27.4564 39.16 28.0244 39.02 28.6564 39.02C29.2804 39.02 29.8364 39.16 30.3244 39.44C30.8204 39.712 31.2044 40.1 31.4764 40.604C31.7564 41.1 31.8964 41.676 31.8964 42.332ZM28.6564 40.22C28.1764 40.22 27.7684 40.364 27.4324 40.652C27.1044 40.932 26.9044 41.308 26.8324 41.78H30.4684C30.4044 41.316 30.2084 40.94 29.8804 40.652C29.5524 40.364 29.1444 40.22 28.6564 40.22ZM36.9733 39.02C37.7813 39.02 38.4293 39.256 38.9173 39.728C39.4053 40.2 39.6493 40.9 39.6493 41.828V45.5H38.1493V42.02C38.1493 41.46 38.0173 41.04 37.7533 40.76C37.4893 40.472 37.1133 40.328 36.6253 40.328C36.0733 40.328 35.6373 40.496 35.3173 40.832C34.9973 41.16 34.8373 41.636 34.8373 42.26V45.5H33.3373V39.092H34.7653V39.92C35.0133 39.624 35.3253 39.4 35.7013 39.248C36.0773 39.096 36.5013 39.02 36.9733 39.02ZM45.4041 45.152C45.2281 45.296 45.0121 45.404 44.7561 45.476C44.5081 45.548 44.2441 45.584 43.9641 45.584C43.2601 45.584 42.7161 45.4 42.3321 45.032C41.9481 44.664 41.7561 44.128 41.7561 43.424V40.34H40.7001V39.14H41.7561V37.676H43.2561V39.14H44.9721V40.34H43.2561V43.388C43.2561 43.7 43.3321 43.94 43.4841 44.108C43.6361 44.268 43.8561 44.348 44.1441 44.348C44.4801 44.348 44.7601 44.26 44.9841 44.084L45.4041 45.152ZM48.6181 45.584C48.0981 45.584 47.5901 45.516 47.0941 45.38C46.5981 45.244 46.2021 45.072 45.9061 44.864L46.4821 43.724C46.7701 43.916 47.1141 44.072 47.5141 44.192C47.9221 44.304 48.3221 44.36 48.7141 44.36C49.6101 44.36 50.0581 44.124 50.0581 43.652C50.0581 43.428 49.9421 43.272 49.7101 43.184C49.4861 43.096 49.1221 43.012 48.6181 42.932C48.0901 42.852 47.6581 42.76 47.3221 42.656C46.9941 42.552 46.7061 42.372 46.4581 42.116C46.2181 41.852 46.0981 41.488 46.0981 41.024C46.0981 40.416 46.3501 39.932 46.8541 39.572C47.3661 39.204 48.0541 39.02 48.9181 39.02C49.3581 39.02 49.7981 39.072 50.2381 39.176C50.6781 39.272 51.0381 39.404 51.3181 39.572L50.7421 40.712C50.1981 40.392 49.5861 40.232 48.9061 40.232C48.4661 40.232 48.1301 40.3 47.8981 40.436C47.6741 40.564 47.5621 40.736 47.5621 40.952C47.5621 41.192 47.6821 41.364 47.9221 41.468C48.1701 41.564 48.5501 41.656 49.0621 41.744C49.5741 41.824 49.9941 41.916 50.3221 42.02C50.6501 42.124 50.9301 42.3 51.1621 42.548C51.4021 42.796 51.5221 43.148 51.5221 43.604C51.5221 44.204 51.2621 44.684 50.7421 45.044C50.2221 45.404 49.5141 45.584 48.6181 45.584Z" fill="#1C1C24"/>
</svg>
