<svg width="21" height="22" viewBox="0 0 21 22" fill="none" xmlns="http://www.w3.org/2000/svg">
<path d="M9.86719 11C12.6286 11 14.8672 8.76142 14.8672 6C14.8672 3.23858 12.6286 1 9.86719 1C7.10576 1 4.86719 3.23858 4.86719 6C4.86719 8.76142 7.10576 11 9.86719 11Z" stroke="#1C1C24" stroke-width="1.6"/>
<path d="M14.8672 21H3.13325C2.84963 21.0001 2.56924 20.9398 2.31069 20.8232C2.05215 20.7066 1.82135 20.5364 1.63362 20.3238C1.4459 20.1112 1.30554 19.8611 1.22185 19.5901C1.13817 19.3191 1.11308 19.0334 1.14825 18.752L1.53825 15.628C1.62894 14.9022 1.98166 14.2346 2.53008 13.7506C3.0785 13.2667 3.78483 12.9997 4.51625 13H4.86725M16.8672 12V18M13.8672 15H19.8672" stroke="#1C1C24" stroke-width="1.6" stroke-linecap="round" stroke-linejoin="round"/>
</svg>
