<svg width="115" height="142" viewBox="0 0 115 142" fill="none" xmlns="http://www.w3.org/2000/svg">
<path d="M4.7362 0.710588C2.6602 0.710588 0.962891 2.4066 0.962891 4.48526V137.639C0.962891 139.717 2.6602 141.415 4.7362 141.415H111.167C113.247 141.415 114.944 139.717 114.944 137.639V46.3879C114.944 44.3106 113.744 41.4106 112.278 39.9426L75.7122 3.37992C74.2442 1.90926 71.3442 0.710588 69.2669 0.710588H4.7362" fill="#918F90"/>
<path d="M7.88525 3.22673C5.80525 3.22673 4.10791 4.92671 4.10791 7.00004V136.383C4.10791 138.457 5.80525 140.159 7.88525 140.159H109.913C111.985 140.159 113.688 138.457 113.688 136.383V47.0161C113.688 44.9401 112.483 42.0414 111.017 40.5694L76.3399 5.89607C74.8705 4.4294 71.9719 3.22673 69.8959 3.22673H7.88525" fill="url(#paint0_linear_335_493)"/>
<path d="M75.6919 13.2506V32.1199C75.6919 36.0959 78.9199 39.3213 82.8892 39.3213H102.5L75.6919 13.2506" fill="url(#paint1_linear_335_493)"/>
<path d="M74.2118 36.5335L72.4745 5.48151L69.8052 40.9402C69.8052 43.0135 71.5038 44.7148 73.5838 44.7148H107.93L77.9852 40.3095C75.9105 40.3095 74.2118 38.6095 74.2118 36.5335Z" fill="url(#paint2_radial_335_493)"/>
<path d="M4.10791 140.159H113.688C113.688 140.159 71.3706 130.719 4.10791 140.159Z" fill="url(#paint3_linear_335_493)"/>
<path d="M113.688 101.827C113.688 103.634 112.163 105.111 110.303 105.111H7.49326C5.63193 105.111 4.10791 103.634 4.10791 101.827V63.5095C4.10791 61.7028 5.63193 60.2242 7.49326 60.2242H110.303C112.163 60.2242 113.688 61.7028 113.688 63.5095V101.827Z" fill="#5D632D"/>
<path d="M113.688 103.757C113.688 105.564 112.163 107.043 110.303 107.043H7.49326C5.63193 107.043 4.10791 105.564 4.10791 103.757V65.4401C4.10791 63.6334 5.63193 62.1561 7.49326 62.1561H110.303C112.163 62.1561 113.688 63.6334 113.688 65.4401V103.757Z" fill="#6BC74D"/>
<path d="M32.3331 84.1362H33.7664C35.8677 84.1362 37.4931 83.6468 38.6384 82.6668C39.7851 81.6895 40.3584 80.2988 40.3584 78.5002C40.3584 76.9975 39.9064 75.9215 38.9997 75.2735C38.0971 74.6241 36.5998 74.3002 34.5104 74.3002H32.3331V84.1362ZM28.7744 96.7788V71.6442H35.6104C37.5798 71.6442 39.0997 71.8055 40.1664 72.1282C41.2397 72.4495 42.1104 73.0202 42.7878 73.8335C43.6811 74.9095 44.1318 76.3775 44.1318 78.2322C44.1318 80.9042 43.2291 82.9988 41.4224 84.5162C39.6184 86.0335 37.1104 86.7909 33.9064 86.7909H32.3331V96.7788H28.7744" fill="white"/>
<path d="M51.5453 94.1228H56.1187C59.3787 94.1228 61.692 93.2455 63.056 91.4882C64.5147 89.6175 65.2467 87.1068 65.2467 83.9562C65.2467 80.9988 64.5253 78.6748 63.0867 76.9855C62.212 75.9535 61.1707 75.2482 59.9587 74.8695C58.7467 74.4895 56.92 74.3002 54.4893 74.3002H51.5453V94.1228ZM47.9854 96.7788V71.6442H56.3373C58.8266 71.6442 60.8373 71.9215 62.3706 72.4761C63.9026 73.0308 65.2293 73.9709 66.3506 75.2962C68.1293 77.4015 69.0173 80.1748 69.0173 83.6162C69.0173 87.5002 67.9747 90.6482 65.892 93.0588C64.764 94.3855 63.452 95.3348 61.9654 95.9121C60.4747 96.4908 58.6187 96.7788 56.3893 96.7788H47.9854" fill="white"/>
<path d="M74.0215 96.7788V71.6442H88.0521V74.3002H77.5841V82.7481H86.3748V85.4028H77.5841V96.7788H74.0215" fill="white"/>
</svg>
