<svg width="61" height="60" viewBox="0 0 61 60" fill="none" xmlns="http://www.w3.org/2000/svg">
<path d="M0.15799 10.8108C0.15799 4.84017 4.99815 0 10.9688 0H49.3472C55.3178 0 60.158 4.84017 60.158 10.8108V49.1892C60.158 55.1598 55.3178 60 49.3472 60H10.9688C4.99816 60 0.15799 55.1598 0.15799 49.1892V10.8108Z" fill="#AADDE5"/>
<path d="M30.158 35.7609C33.2508 35.7609 36.1028 36.5505 38.1634 37.5461C39.1957 38.0448 39.9961 38.5792 40.5212 39.0622C40.7838 39.3038 40.9562 39.513 41.0572 39.6774C41.1508 39.8299 41.1576 39.9014 41.158 39.9013C41.158 39.9013 41.158 39.9004 41.158 39.8984C41.158 41.2489 40.8485 42.0686 40.4181 42.5965C39.9849 43.1277 39.3219 43.4957 38.352 43.7281C37.3726 43.9628 36.1696 44.038 34.7569 44.0472C34.0561 44.0517 33.3205 44.0401 32.5486 44.0272L32.4308 44.0252C31.6983 44.0129 30.9353 44 30.158 44C29.3798 44 28.6167 44.0128 27.8845 44.025L27.7577 44.0271C26.9834 44.04 26.2464 44.0514 25.5449 44.0466C24.1307 44.0369 22.9296 43.9605 21.9534 43.7242C20.9874 43.4903 20.3278 43.1204 19.8965 42.5855C19.4666 42.0524 19.158 41.2245 19.158 39.8624C19.158 39.8643 19.158 39.8652 19.158 39.8652C19.1584 39.8652 19.1649 39.7941 19.2587 39.6425C19.3598 39.479 19.5327 39.2709 19.7963 39.0307C20.3235 38.5504 21.1269 38.0204 22.1619 37.5262C24.2279 36.5398 27.0814 35.7609 30.158 35.7609ZM30.158 16C34.0148 16 37.099 19.0838 37.099 22.9366C37.099 26.7896 34.0146 29.8747 30.158 29.8747C26.3028 29.8747 23.217 26.7895 23.217 22.9366C23.217 19.0839 26.3025 16 30.158 16Z" fill="#F9FBFD" stroke="#F9FBFD" stroke-width="2" stroke-linecap="round" stroke-linejoin="round"/>
</svg>
