<svg width="50" height="49" viewBox="0 0 50 49" fill="none" xmlns="http://www.w3.org/2000/svg">
<path d="M37.2222 20.5556V8.33333C37.2222 7.68503 36.9647 7.06327 36.5063 6.60485C36.0478 6.14643 35.4261 5.88889 34.7778 5.88889H26.5107C26.0566 5.88887 25.6115 5.7624 25.2253 5.52364C24.8391 5.28488 24.5271 4.94327 24.3241 4.53711L23.2314 2.35178C23.0284 1.94543 22.7161 1.6037 22.3297 1.36493C21.9432 1.12616 21.4979 0.999789 21.0437 1H15.2222C14.5739 1 13.9522 1.25754 13.4937 1.71596C13.0353 2.17438 12.7778 2.79614 12.7778 3.44444V20.5556C12.7778 21.2039 13.0353 21.8256 13.4937 22.284C13.9522 22.7425 14.5739 23 15.2222 23H34.7778C35.4261 23 36.0478 22.7425 36.5063 22.284C36.9647 21.8256 37.2222 21.2039 37.2222 20.5556Z" stroke="#1C1C24" stroke-width="2" stroke-linecap="round" stroke-linejoin="round"/>
<path d="M25 10.7778V14.4444M25 14.4444V18.1111M25 14.4444H28.6666M25 14.4444H21.3333" stroke="#1C1C24" stroke-width="2" stroke-linecap="round"/>
<path d="M7.16702 46L5.35502 43.42C5.13102 43.436 4.95502 43.444 4.82702 43.444H2.75102V46H1.55102V37.6H4.82702C5.91502 37.6 6.77102 37.86 7.39502 38.38C8.01902 38.9 8.33102 39.616 8.33102 40.528C8.33102 41.176 8.17102 41.728 7.85102 42.184C7.53102 42.64 7.07502 42.972 6.48302 43.18L8.47502 46H7.16702ZM4.79102 42.424C5.55102 42.424 6.13102 42.26 6.53102 41.932C6.93102 41.604 7.13102 41.136 7.13102 40.528C7.13102 39.92 6.93102 39.456 6.53102 39.136C6.13102 38.808 5.55102 38.644 4.79102 38.644H2.75102V42.424H4.79102ZM15.8498 42.856C15.8498 42.944 15.8418 43.06 15.8258 43.204H10.6658C10.7378 43.764 10.9818 44.216 11.3978 44.56C11.8218 44.896 12.3458 45.064 12.9698 45.064C13.7298 45.064 14.3418 44.808 14.8058 44.296L15.4418 45.04C15.1538 45.376 14.7938 45.632 14.3618 45.808C13.9378 45.984 13.4618 46.072 12.9338 46.072C12.2618 46.072 11.6658 45.936 11.1458 45.664C10.6258 45.384 10.2218 44.996 9.93377 44.5C9.65377 44.004 9.51377 43.444 9.51377 42.82C9.51377 42.204 9.64977 41.648 9.92177 41.152C10.2018 40.656 10.5818 40.272 11.0618 40C11.5498 39.72 12.0978 39.58 12.7058 39.58C13.3138 39.58 13.8538 39.72 14.3258 40C14.8058 40.272 15.1778 40.656 15.4418 41.152C15.7138 41.648 15.8498 42.216 15.8498 42.856ZM12.7058 40.552C12.1538 40.552 11.6898 40.72 11.3138 41.056C10.9458 41.392 10.7298 41.832 10.6658 42.376H14.7458C14.6818 41.84 14.4618 41.404 14.0858 41.068C13.7178 40.724 13.2578 40.552 12.7058 40.552ZM20.2214 46.072C19.5734 46.072 18.9934 45.932 18.4814 45.652C17.9774 45.372 17.5814 44.988 17.2934 44.5C17.0054 44.004 16.8614 43.444 16.8614 42.82C16.8614 42.196 17.0054 41.64 17.2934 41.152C17.5814 40.656 17.9774 40.272 18.4814 40C18.9934 39.72 19.5734 39.58 20.2214 39.58C20.7974 39.58 21.3094 39.696 21.7574 39.928C22.2134 40.16 22.5654 40.496 22.8134 40.936L21.9374 41.5C21.7374 41.196 21.4894 40.968 21.1934 40.816C20.8974 40.664 20.5694 40.588 20.2094 40.588C19.7934 40.588 19.4174 40.68 19.0814 40.864C18.7534 41.048 18.4934 41.312 18.3014 41.656C18.1174 41.992 18.0254 42.38 18.0254 42.82C18.0254 43.268 18.1174 43.664 18.3014 44.008C18.4934 44.344 18.7534 44.604 19.0814 44.788C19.4174 44.972 19.7934 45.064 20.2094 45.064C20.5694 45.064 20.8974 44.988 21.1934 44.836C21.4894 44.684 21.7374 44.456 21.9374 44.152L22.8134 44.704C22.5654 45.144 22.2134 45.484 21.7574 45.724C21.3094 45.956 20.7974 46.072 20.2214 46.072ZM26.9351 46.072C26.3031 46.072 25.7351 45.932 25.2311 45.652C24.7271 45.372 24.3311 44.988 24.0431 44.5C23.7631 44.004 23.6231 43.444 23.6231 42.82C23.6231 42.196 23.7631 41.64 24.0431 41.152C24.3311 40.656 24.7271 40.272 25.2311 40C25.7351 39.72 26.3031 39.58 26.9351 39.58C27.5671 39.58 28.1311 39.72 28.6271 40C29.1311 40.272 29.5231 40.656 29.8031 41.152C30.0911 41.64 30.2351 42.196 30.2351 42.82C30.2351 43.444 30.0911 44.004 29.8031 44.5C29.5231 44.988 29.1311 45.372 28.6271 45.652C28.1311 45.932 27.5671 46.072 26.9351 46.072ZM26.9351 45.064C27.3431 45.064 27.7071 44.972 28.0271 44.788C28.3551 44.596 28.6111 44.332 28.7951 43.996C28.9791 43.652 29.0711 43.26 29.0711 42.82C29.0711 42.38 28.9791 41.992 28.7951 41.656C28.6111 41.312 28.3551 41.048 28.0271 40.864C27.7071 40.68 27.3431 40.588 26.9351 40.588C26.5271 40.588 26.1591 40.68 25.8311 40.864C25.5111 41.048 25.2551 41.312 25.0631 41.656C24.8791 41.992 24.7871 42.38 24.7871 42.82C24.7871 43.26 24.8791 43.652 25.0631 43.996C25.2551 44.332 25.5111 44.596 25.8311 44.788C26.1591 44.972 26.5271 45.064 26.9351 45.064ZM32.9323 40.708C33.1323 40.34 33.4283 40.06 33.8203 39.868C34.2123 39.676 34.6883 39.58 35.2483 39.58V40.696C35.1843 40.688 35.0963 40.684 34.9843 40.684C34.3603 40.684 33.8683 40.872 33.5083 41.248C33.1563 41.616 32.9803 42.144 32.9803 42.832V46H31.8283V39.64H32.9323V40.708ZM42.6096 37.096V46H41.5056V44.992C41.2496 45.344 40.9256 45.612 40.5336 45.796C40.1416 45.98 39.7096 46.072 39.2376 46.072C38.6216 46.072 38.0696 45.936 37.5816 45.664C37.0936 45.392 36.7096 45.012 36.4296 44.524C36.1576 44.028 36.0216 43.46 36.0216 42.82C36.0216 42.18 36.1576 41.616 36.4296 41.128C36.7096 40.64 37.0936 40.26 37.5816 39.988C38.0696 39.716 38.6216 39.58 39.2376 39.58C39.6936 39.58 40.1136 39.668 40.4976 39.844C40.8816 40.012 41.2016 40.264 41.4576 40.6V37.096H42.6096ZM39.3336 45.064C39.7336 45.064 40.0976 44.972 40.4256 44.788C40.7536 44.596 41.0096 44.332 41.1936 43.996C41.3776 43.652 41.4696 43.26 41.4696 42.82C41.4696 42.38 41.3776 41.992 41.1936 41.656C41.0096 41.312 40.7536 41.048 40.4256 40.864C40.0976 40.68 39.7336 40.588 39.3336 40.588C38.9256 40.588 38.5576 40.68 38.2296 40.864C37.9096 41.048 37.6536 41.312 37.4616 41.656C37.2776 41.992 37.1856 42.38 37.1856 42.82C37.1856 43.26 37.2776 43.652 37.4616 43.996C37.6536 44.332 37.9096 44.596 38.2296 44.788C38.5576 44.972 38.9256 45.064 39.3336 45.064ZM46.6133 46.072C46.0933 46.072 45.5933 46.004 45.1133 45.868C44.6333 45.724 44.2573 45.544 43.9853 45.328L44.4653 44.416C44.7453 44.616 45.0853 44.776 45.4853 44.896C45.8853 45.016 46.2893 45.076 46.6973 45.076C47.7053 45.076 48.2093 44.788 48.2093 44.212C48.2093 44.02 48.1413 43.868 48.0053 43.756C47.8693 43.644 47.6973 43.564 47.4893 43.516C47.2893 43.46 47.0013 43.4 46.6253 43.336C46.1133 43.256 45.6933 43.164 45.3653 43.06C45.0453 42.956 44.7693 42.78 44.5373 42.532C44.3053 42.284 44.1893 41.936 44.1893 41.488C44.1893 40.912 44.4293 40.452 44.9093 40.108C45.3893 39.756 46.0333 39.58 46.8413 39.58C47.2653 39.58 47.6893 39.632 48.1133 39.736C48.5373 39.84 48.8853 39.98 49.1573 40.156L48.6653 41.068C48.1453 40.732 47.5333 40.564 46.8293 40.564C46.3413 40.564 45.9693 40.644 45.7133 40.804C45.4573 40.964 45.3293 41.176 45.3293 41.44C45.3293 41.648 45.4013 41.812 45.5453 41.932C45.6893 42.052 45.8653 42.14 46.0733 42.196C46.2893 42.252 46.5893 42.316 46.9733 42.388C47.4853 42.476 47.8973 42.572 48.2093 42.676C48.5293 42.772 48.8013 42.94 49.0253 43.18C49.2493 43.42 49.3613 43.756 49.3613 44.188C49.3613 44.764 49.1133 45.224 48.6173 45.568C48.1293 45.904 47.4613 46.072 46.6133 46.072Z" fill="black"/>
</svg>
