<svg width="10" height="19" viewBox="0 0 10 19" fill="none" xmlns="http://www.w3.org/2000/svg">
<path d="M0.450852 16.7929C0.0603279 17.1834 0.0603279 17.8166 0.450852 18.2071C0.841377 18.5976 1.47454 18.5976 1.86507 18.2071L0.450852 16.7929ZM1.86507 0.792892C1.47454 0.402369 0.841376 0.402369 0.450852 0.792892C0.0603274 1.18342 0.0603274 1.81658 0.450852 2.20711L1.86507 0.792892ZM1.86507 18.2071L9.15796 10.9142L7.74375 9.5L0.450852 16.7929L1.86507 18.2071ZM9.15796 8.08579L1.86507 0.792892L0.450852 2.20711L7.74374 9.5L9.15796 8.08579ZM9.15796 10.9142C9.93901 10.1332 9.93901 8.86683 9.15796 8.08579L7.74374 9.5L7.74375 9.5L9.15796 10.9142Z" fill="#1C1C24"/>
</svg>
